<svg xmlns="http://www.w3.org/2000/svg" width="33.477" height="22.816" viewBox="0 0 33.477 22.816"><defs><style>.a{fill:#00a6e4;}</style></defs><path class="a" d="M36.579,10.362l-8.659,8.6a.149.149,0,0,0,0,.22l6.06,6.3a1,1,0,0,1,0,1.444,1.068,1.068,0,0,1-1.481,0l-6.036-6.272a.168.168,0,0,0-.233,0l-1.473,1.46a6.561,6.561,0,0,1-4.619,1.9,6.691,6.691,0,0,1-4.716-1.955l-1.416-1.405a.168.168,0,0,0-.233,0L7.737,26.926a1.068,1.068,0,0,1-1.481,0,1,1,0,0,1,0-1.444l6.06-6.3a.164.164,0,0,0,0-.22l-8.667-8.6a.159.159,0,0,0-.274.11V27.687A2.552,2.552,0,0,0,5.95,30.2H34.277a2.552,2.552,0,0,0,2.575-2.512V10.472A.162.162,0,0,0,36.579,10.362Z" transform="translate(-3.375 -7.383)"/><path class="a" d="M19.942,23.345a4.256,4.256,0,0,0,3.137-1.386L35.667,8.466a2.444,2.444,0,0,0-1.589-.591H5.814a2.428,2.428,0,0,0-1.589.591L16.813,21.959A4.257,4.257,0,0,0,19.942,23.345Z" transform="translate(-3.203 -7.875)"/></svg>