<svg xmlns="http://www.w3.org/2000/svg" width="19.933" height="21.982" viewBox="0 0 19.933 21.982"><defs><style>.a{fill:#fff;}</style></defs><path class="a" d="M21.589,10.145a11.336,11.336,0,0,1-.365,2.459,7.115,7.115,0,0,1-.956,2.159A5.045,5.045,0,0,1,18.647,16.3a4.574,4.574,0,0,1-2.367.584,3.431,3.431,0,0,1-1.711-.419,2.931,2.931,0,0,1-1.157-1.185,3.666,3.666,0,0,1-3.1,1.558A3.154,3.154,0,0,1,7.6,15.379a4.766,4.766,0,0,1-.673-1.687,7.275,7.275,0,0,1-.088-2.2A10.222,10.222,0,0,1,7.513,8.8,7.325,7.325,0,0,1,8.752,6.732a5.241,5.241,0,0,1,1.7-1.316,4.753,4.753,0,0,1,2.071-.46,6.441,6.441,0,0,1,1.239.106,5.071,5.071,0,0,1,.962.288,5.2,5.2,0,0,1,.8.42c.243.157.488.319.731.484l-.6,6.923a2.3,2.3,0,0,0,.018.81,1.134,1.134,0,0,0,.247.5.89.89,0,0,0,.4.261,1.489,1.489,0,0,0,1.409-.277,3,3,0,0,0,.755-.962,6.193,6.193,0,0,0,.508-1.445,9.915,9.915,0,0,0,.223-1.8A11.5,11.5,0,0,0,18.932,6.9a6.684,6.684,0,0,0-1.244-2.6,5.779,5.779,0,0,0-2.231-1.676,8.1,8.1,0,0,0-3.25-.595,7.176,7.176,0,0,0-3.214.7A7.375,7.375,0,0,0,6.55,4.673a9.321,9.321,0,0,0-1.6,2.922,13.166,13.166,0,0,0-.673,3.64,12.1,12.1,0,0,0,.343,3.714,6.708,6.708,0,0,0,1.357,2.662,5.663,5.663,0,0,0,2.3,1.6,8.82,8.82,0,0,0,3.173.53,10.868,10.868,0,0,0,2.082-.224c.343-.069.669-.151.979-.242a7.37,7.37,0,0,0,.843-.3l.435,1.959a4.834,4.834,0,0,1-.944.467,9.084,9.084,0,0,1-1.115.323,10.883,10.883,0,0,1-2.33.261A12.217,12.217,0,0,1,7.156,21.3a7.817,7.817,0,0,1-3.1-2.036A8.549,8.549,0,0,1,2.2,15.9a14.337,14.337,0,0,1-.519-4.666,14.23,14.23,0,0,1,.893-4.478A11.082,11.082,0,0,1,4.726,3.2,9.8,9.8,0,0,1,8.007.852,10.274,10.274,0,0,1,12.257,0a10.726,10.726,0,0,1,4.118.738,8.009,8.009,0,0,1,2.972,2.074,8.512,8.512,0,0,1,1.764,3.2A12.253,12.253,0,0,1,21.589,10.145Zm-11.8,1.346a4.673,4.673,0,0,0,.242,2.317,1.242,1.242,0,0,0,1.2.783,1.32,1.32,0,0,0,.409-.076,1.46,1.46,0,0,0,.471-.283,2.514,2.514,0,0,0,.478-.577,4.427,4.427,0,0,0,.44-.975L13.5,7.3a2.807,2.807,0,0,0-.731-.1,2.527,2.527,0,0,0-1.216.279,2.407,2.407,0,0,0-.861.819,4.808,4.808,0,0,0-.571,1.346,11.419,11.419,0,0,0-.324,1.841Z" transform="translate(-1.67)"/></svg>