<svg xmlns="http://www.w3.org/2000/svg" width="28.393" height="28.393" viewBox="0 0 28.393 28.393"><defs><style>.a{fill:#fff;}</style></defs><path class="a" d="M27.583,20.064,21.372,17.4a1.331,1.331,0,0,0-1.553.383l-2.751,3.361a20.555,20.555,0,0,1-9.826-9.826L10.6,8.569a1.328,1.328,0,0,0,.383-1.553L8.324.8A1.34,1.34,0,0,0,6.8.034L1.031,1.365A1.331,1.331,0,0,0,0,2.662,25.729,25.729,0,0,0,25.732,28.394a1.331,1.331,0,0,0,1.3-1.031l1.331-5.767a1.347,1.347,0,0,0-.777-1.531Z" transform="translate(0 0)"/></svg>