<svg xmlns="http://www.w3.org/2000/svg" width="24.105" height="26.582" viewBox="0 0 24.105 26.582"><defs><style>.a{fill:#231f20;}</style></defs><path class="a" d="M25.759,12.269a13.709,13.709,0,0,1-.442,2.973,8.6,8.6,0,0,1-1.156,2.611,6.1,6.1,0,0,1-1.96,1.855,5.532,5.532,0,0,1-2.862.706,4.149,4.149,0,0,1-2.07-.507,3.544,3.544,0,0,1-1.4-1.434,4.433,4.433,0,0,1-3.751,1.884A3.814,3.814,0,0,1,8.845,18.6a5.764,5.764,0,0,1-.814-2.04A8.8,8.8,0,0,1,7.925,13.9a12.361,12.361,0,0,1,.811-3.259,8.858,8.858,0,0,1,1.5-2.5,6.338,6.338,0,0,1,2.06-1.591,5.747,5.747,0,0,1,2.5-.556,7.789,7.789,0,0,1,1.5.128,6.133,6.133,0,0,1,1.163.349,6.288,6.288,0,0,1,.963.508c.294.189.59.385.884.585l-.728,8.372a2.783,2.783,0,0,0,.022.98,1.371,1.371,0,0,0,.3.6,1.076,1.076,0,0,0,.485.316,1.8,1.8,0,0,0,1.7-.336A3.632,3.632,0,0,0,22,16.337a7.489,7.489,0,0,0,.615-1.747,11.99,11.99,0,0,0,.269-2.176,13.906,13.906,0,0,0-.342-4.066,8.083,8.083,0,0,0-1.5-3.146,6.988,6.988,0,0,0-2.7-2.027,9.791,9.791,0,0,0-3.93-.719,8.678,8.678,0,0,0-3.887.847A8.918,8.918,0,0,0,7.571,5.651,11.272,11.272,0,0,0,5.638,9.184a15.922,15.922,0,0,0-.814,4.4,14.638,14.638,0,0,0,.415,4.492A8.112,8.112,0,0,0,6.88,21.3,6.849,6.849,0,0,0,9.661,23.23a10.666,10.666,0,0,0,3.837.641,13.142,13.142,0,0,0,2.518-.271c.415-.083.809-.183,1.184-.292a8.914,8.914,0,0,0,1.02-.365l.527,2.369a5.845,5.845,0,0,1-1.141.565,10.985,10.985,0,0,1-1.349.39,13.161,13.161,0,0,1-2.817.316A14.774,14.774,0,0,1,8.3,25.755,9.453,9.453,0,0,1,4.56,23.293a10.339,10.339,0,0,1-2.247-4.065,17.338,17.338,0,0,1-.628-5.643,17.209,17.209,0,0,1,1.08-5.415,13.4,13.4,0,0,1,2.6-4.3A11.854,11.854,0,0,1,9.334,1.03,12.424,12.424,0,0,1,14.473,0a12.971,12.971,0,0,1,4.98.892A9.686,9.686,0,0,1,23.048,3.4a10.294,10.294,0,0,1,2.133,3.875A14.818,14.818,0,0,1,25.759,12.269ZM11.493,13.9a5.651,5.651,0,0,0,.292,2.8,1.5,1.5,0,0,0,1.445.947,1.6,1.6,0,0,0,.5-.091,1.765,1.765,0,0,0,.57-.342,3.041,3.041,0,0,0,.578-.7,5.354,5.354,0,0,0,.532-1.179l.568-6.5a3.394,3.394,0,0,0-.884-.116,3.055,3.055,0,0,0-1.47.337,2.91,2.91,0,0,0-1.041.99,5.814,5.814,0,0,0-.691,1.628,13.809,13.809,0,0,0-.392,2.226Z" transform="translate(-1.67)"/></svg>