<svg xmlns="http://www.w3.org/2000/svg" width="26.577" height="26.577" viewBox="0 0 26.577 26.577"><defs><style>.a{fill:#231f20;}</style></defs><path class="a" d="M25.819,18.781l-5.814-2.492a1.246,1.246,0,0,0-1.453.358l-2.575,3.146a19.241,19.241,0,0,1-9.2-9.2L9.925,8.021a1.243,1.243,0,0,0,.358-1.453L7.792.753A1.254,1.254,0,0,0,6.364.032L.966,1.278A1.246,1.246,0,0,0,0,2.492,24.083,24.083,0,0,0,24.086,26.577a1.246,1.246,0,0,0,1.215-.966l1.246-5.4a1.261,1.261,0,0,0-.727-1.433Z" transform="translate(0 0)"/></svg>