<svg xmlns="http://www.w3.org/2000/svg" width="25.998" height="28.67" viewBox="0 0 25.998 28.67"><defs><style>.a{fill:#fff;}</style></defs><path class="a" d="M27.65,13.232a14.786,14.786,0,0,1-.477,3.207,9.28,9.28,0,0,1-1.247,2.816,6.58,6.58,0,0,1-2.114,2,5.966,5.966,0,0,1-3.087.761,4.475,4.475,0,0,1-2.232-.546,3.823,3.823,0,0,1-1.508-1.546,4.781,4.781,0,0,1-4.045,2.032,4.113,4.113,0,0,1-3.531-1.9,6.217,6.217,0,0,1-.878-2.2,9.488,9.488,0,0,1-.115-2.87,13.332,13.332,0,0,1,.874-3.515A9.554,9.554,0,0,1,10.907,8.78a6.836,6.836,0,0,1,2.222-1.716,6.2,6.2,0,0,1,2.7-.6,8.4,8.4,0,0,1,1.616.138,6.614,6.614,0,0,1,1.254.376,6.781,6.781,0,0,1,1.039.548c.317.2.636.416.953.631l-.785,9.029a3,3,0,0,0,.023,1.057,1.479,1.479,0,0,0,.322.652,1.161,1.161,0,0,0,.523.34,1.942,1.942,0,0,0,1.838-.362A3.918,3.918,0,0,0,23.6,17.62a8.077,8.077,0,0,0,.663-1.885,12.931,12.931,0,0,0,.29-2.347A15,15,0,0,0,24.184,9a8.718,8.718,0,0,0-1.623-3.393,7.537,7.537,0,0,0-2.909-2.186,10.56,10.56,0,0,0-4.239-.776,9.359,9.359,0,0,0-4.192.914A9.619,9.619,0,0,0,8.035,6.095,12.157,12.157,0,0,0,5.95,9.905a17.172,17.172,0,0,0-.878,4.748A15.787,15.787,0,0,0,5.52,19.5a8.749,8.749,0,0,0,1.77,3.472,7.387,7.387,0,0,0,3,2.085,11.5,11.5,0,0,0,4.138.692,14.175,14.175,0,0,0,2.716-.292c.448-.09.872-.2,1.277-.315a9.614,9.614,0,0,0,1.1-.394l.568,2.555a6.3,6.3,0,0,1-1.231.609,11.849,11.849,0,0,1-1.455.421,14.2,14.2,0,0,1-3.038.34,15.934,15.934,0,0,1-5.539-.892,10.2,10.2,0,0,1-4.038-2.655,11.151,11.151,0,0,1-2.424-4.384,18.7,18.7,0,0,1-.677-6.086A18.56,18.56,0,0,1,2.85,8.813a14.454,14.454,0,0,1,2.806-4.64,12.784,12.784,0,0,1,4.28-3.062A13.4,13.4,0,0,1,15.479,0,13.99,13.99,0,0,1,20.85.962a10.446,10.446,0,0,1,3.877,2.705,11.1,11.1,0,0,1,2.3,4.18A15.982,15.982,0,0,1,27.65,13.232ZM12.265,14.988a6.1,6.1,0,0,0,.315,3.022,1.62,1.62,0,0,0,1.559,1.021,1.722,1.722,0,0,0,.534-.1,1.9,1.9,0,0,0,.614-.369,3.279,3.279,0,0,0,.623-.752,5.775,5.775,0,0,0,.573-1.272L17.1,9.524a3.661,3.661,0,0,0-.953-.125,3.3,3.3,0,0,0-1.586.364,3.139,3.139,0,0,0-1.123,1.068,6.27,6.27,0,0,0-.745,1.756,14.893,14.893,0,0,0-.423,2.4Z" transform="translate(-1.67)"/></svg>