<svg xmlns="http://www.w3.org/2000/svg" width="18.222" height="20.487" viewBox="0 0 18.222 20.487"><defs><style>.a{fill:#acacac;}</style></defs><path class="a" d="M21.716,4.5H5.506A1.075,1.075,0,0,0,4.5,5.631V23.856a1.075,1.075,0,0,0,1.006,1.131h8.1V16.878H11.433V13.89h2.178V11.681c0-2.646,1.632-4.087,3.734-4.087a22.452,22.452,0,0,1,2.339.123v2.764H18.01c-1.144,0-1.362.608-1.362,1.5v1.9h2.724l-.356,2.988H16.648v8.109h5.068a1.075,1.075,0,0,0,1.006-1.131V5.631A1.075,1.075,0,0,0,21.716,4.5Z" transform="translate(-4.5 -4.5)"/></svg>