<svg xmlns="http://www.w3.org/2000/svg" width="28.664" height="28.664" viewBox="0 0 28.664 28.664"><defs><style>.a{fill:#fff;}</style></defs><path class="a" d="M27.847,20.256l-6.27-2.687a1.344,1.344,0,0,0-1.568.386l-2.777,3.393a20.752,20.752,0,0,1-9.92-9.92L10.7,8.65a1.34,1.34,0,0,0,.386-1.568L8.4.812A1.353,1.353,0,0,0,6.864.034L1.041,1.378A1.344,1.344,0,0,0,0,2.687,25.974,25.974,0,0,0,25.977,28.665a1.344,1.344,0,0,0,1.31-1.041L28.631,21.8a1.36,1.36,0,0,0-.784-1.545Z" transform="translate(0 0)"/></svg>