<svg xmlns="http://www.w3.org/2000/svg" width="31.453" height="31.453" viewBox="0 0 31.453 31.453"><defs><style>.a{fill:#fff;}</style></defs><path class="a" d="M30.556,22.226l-6.88-2.949a1.474,1.474,0,0,0-1.72.424l-3.047,3.723A22.77,22.77,0,0,1,8.023,12.539l3.723-3.047a1.471,1.471,0,0,0,.424-1.72L9.221.891A1.484,1.484,0,0,0,7.532.038L1.143,1.512A1.474,1.474,0,0,0,0,2.949a28.5,28.5,0,0,0,28.5,28.5,1.474,1.474,0,0,0,1.438-1.143l1.474-6.389a1.492,1.492,0,0,0-.861-1.7Z" transform="translate(0 0)"/></svg>