<svg xmlns="http://www.w3.org/2000/svg" width="23.002" height="23.002" viewBox="0 0 23.002 23.002"><defs><style>.a{fill:#292e38;}</style></defs><path class="a" d="M22.346,16.255,17.314,14.1a1.078,1.078,0,0,0-1.258.31l-2.228,2.723A16.653,16.653,0,0,1,5.867,9.17L8.59,6.942A1.076,1.076,0,0,0,8.9,5.684L6.744.652A1.085,1.085,0,0,0,5.508.028L.836,1.106A1.078,1.078,0,0,0,0,2.157,20.844,20.844,0,0,0,20.846,23a1.078,1.078,0,0,0,1.051-.836l1.078-4.672a1.091,1.091,0,0,0-.629-1.24Z" transform="translate(0 0)"/></svg>