<svg xmlns="http://www.w3.org/2000/svg" width="21.509" height="21.509" viewBox="0 0 21.509 21.509"><defs><style>.a{fill:#fff;}</style></defs><path class="a" d="M19.973,2.25H1.532A1.543,1.543,0,0,0,0,3.8V22.209a1.543,1.543,0,0,0,1.532,1.551H19.973a1.547,1.547,0,0,0,1.536-1.551V3.8A1.547,1.547,0,0,0,19.973,2.25ZM6.5,20.687H3.313V10.422H6.506V20.687ZM4.907,9.02A1.848,1.848,0,1,1,6.755,7.171,1.849,1.849,0,0,1,4.907,9.02ZM18.451,20.687H15.263V15.693c0-1.191-.024-2.722-1.656-2.722-1.661,0-1.916,1.3-1.916,2.636v5.08H8.5V10.422h3.058v1.4H11.6a3.358,3.358,0,0,1,3.02-1.656c3.226,0,3.827,2.127,3.827,4.892Z" transform="translate(0 -2.25)"/></svg>