<svg xmlns="http://www.w3.org/2000/svg" width="25.752" height="28.399" viewBox="0 0 25.752 28.399"><defs><style>.a{fill:#fff;}</style></defs><path class="a" d="M27.4,13.107a14.646,14.646,0,0,1-.472,3.177,9.192,9.192,0,0,1-1.235,2.79A6.518,6.518,0,0,1,23.6,21.056a5.91,5.91,0,0,1-3.058.754,4.433,4.433,0,0,1-2.211-.541,3.787,3.787,0,0,1-1.494-1.531,4.736,4.736,0,0,1-4.007,2.012,4.074,4.074,0,0,1-3.5-1.881,6.158,6.158,0,0,1-.87-2.179,9.4,9.4,0,0,1-.114-2.843,13.206,13.206,0,0,1,.866-3.482,9.464,9.464,0,0,1,1.6-2.667A6.772,6.772,0,0,1,13.02,7,6.14,6.14,0,0,1,15.7,6.4a8.321,8.321,0,0,1,1.6.137,6.552,6.552,0,0,1,1.242.373,6.717,6.717,0,0,1,1.029.543c.314.2.63.412.944.625l-.777,8.944a2.973,2.973,0,0,0,.023,1.047,1.465,1.465,0,0,0,.319.646,1.15,1.15,0,0,0,.518.337,1.924,1.924,0,0,0,1.821-.358,3.88,3.88,0,0,0,.976-1.242,8,8,0,0,0,.657-1.867,12.809,12.809,0,0,0,.287-2.325,14.857,14.857,0,0,0-.366-4.344,8.635,8.635,0,0,0-1.608-3.361,7.466,7.466,0,0,0-2.882-2.165,10.46,10.46,0,0,0-4.2-.768,9.271,9.271,0,0,0-4.153.905A9.528,9.528,0,0,0,7.975,6.037,12.042,12.042,0,0,0,5.909,9.812a17.01,17.01,0,0,0-.87,4.7,15.638,15.638,0,0,0,.444,4.8,8.667,8.667,0,0,0,1.753,3.439,7.317,7.317,0,0,0,2.971,2.066,11.4,11.4,0,0,0,4.1.685A14.041,14.041,0,0,0,17,25.213c.444-.089.864-.2,1.265-.312a9.523,9.523,0,0,0,1.09-.39l.563,2.531a6.245,6.245,0,0,1-1.219.6,11.736,11.736,0,0,1-1.441.417,14.06,14.06,0,0,1-3.01.337,15.783,15.783,0,0,1-5.487-.884,10.1,10.1,0,0,1-4-2.63,11.045,11.045,0,0,1-2.4-4.342,18.523,18.523,0,0,1-.671-6.028A18.385,18.385,0,0,1,2.839,8.729a14.318,14.318,0,0,1,2.779-4.6A12.663,12.663,0,0,1,9.858,1.1,13.273,13.273,0,0,1,15.348,0a13.858,13.858,0,0,1,5.32.953,10.348,10.348,0,0,1,3.84,2.68,11,11,0,0,1,2.279,4.14A15.83,15.83,0,0,1,27.4,13.107Zm-15.24,1.739a6.037,6.037,0,0,0,.312,2.994,1.605,1.605,0,0,0,1.544,1.012,1.705,1.705,0,0,0,.529-.1,1.886,1.886,0,0,0,.609-.366,3.248,3.248,0,0,0,.618-.745,5.72,5.72,0,0,0,.568-1.26l.607-6.949a3.626,3.626,0,0,0-.944-.124,3.264,3.264,0,0,0-1.571.36,3.109,3.109,0,0,0-1.113,1.058,6.211,6.211,0,0,0-.738,1.739,14.752,14.752,0,0,0-.419,2.378Z" transform="translate(-1.67)"/></svg>