<svg xmlns="http://www.w3.org/2000/svg" width="36.385" height="36.385" viewBox="0 0 36.385 36.385"><defs><style>.a{fill:#c2986b;}</style></defs><path class="a" d="M32.486,2.25H3.9A3.9,3.9,0,0,0,0,6.148V34.736a3.9,3.9,0,0,0,3.9,3.9H32.486a3.9,3.9,0,0,0,3.9-3.9V6.148A3.9,3.9,0,0,0,32.486,2.25Zm-3.971,12.9c.016.227.016.463.016.69A15.052,15.052,0,0,1,13.376,30.992,15.085,15.085,0,0,1,5.2,28.6a11.222,11.222,0,0,0,1.283.065A10.679,10.679,0,0,0,13.092,26.4a5.334,5.334,0,0,1-4.979-3.7,5.741,5.741,0,0,0,2.4-.1,5.327,5.327,0,0,1-4.264-5.23v-.065a5.323,5.323,0,0,0,2.4.674,5.315,5.315,0,0,1-2.372-4.434,5.26,5.26,0,0,1,.723-2.688,15.124,15.124,0,0,0,10.98,5.571,5.338,5.338,0,0,1,9.088-4.865,10.438,10.438,0,0,0,3.379-1.283,5.313,5.313,0,0,1-2.339,2.932,10.6,10.6,0,0,0,3.07-.828A11.212,11.212,0,0,1,28.515,15.147Z" transform="translate(0 -2.25)"/></svg>