<svg xmlns="http://www.w3.org/2000/svg" width="34.18" height="34.186" viewBox="0 0 34.18 34.186"><defs><style>.a{fill:#c2986b;}</style></defs><path class="a" d="M23.193,11.039c-1-6.155-3.357-10.477-6.1-10.477s-5.1,4.322-6.1,10.477ZM10.477,17.656a43.2,43.2,0,0,0,.227,4.411H23.476a43.2,43.2,0,0,0,.227-4.411,43.2,43.2,0,0,0-.227-4.411H10.7A43.2,43.2,0,0,0,10.477,17.656Zm22.38-6.617a17.129,17.129,0,0,0-10.89-9.76c1.682,2.33,2.84,5.838,3.446,9.76ZM12.213,1.279A17.118,17.118,0,0,0,1.33,11.039H8.774a23.168,23.168,0,0,1,3.439-9.76Zm21.38,11.965H25.688c.145,1.447.227,2.929.227,4.411s-.083,2.964-.227,4.411h7.9a16.946,16.946,0,0,0,.593-4.411A17.242,17.242,0,0,0,33.594,13.245ZM8.271,17.656c0-1.482.083-2.964.227-4.411H.593a16.71,16.71,0,0,0,0,8.822h7.9C8.354,20.619,8.271,19.138,8.271,17.656Zm2.723,6.617c1,6.155,3.357,10.476,6.1,10.476s5.1-4.322,6.1-10.476Zm10.98,9.76a17.146,17.146,0,0,0,10.89-9.76H25.419c-.607,3.922-1.764,7.43-3.446,9.76ZM1.33,24.272a17.129,17.129,0,0,0,10.89,9.76c-1.682-2.33-2.84-5.838-3.446-9.76H1.33Z" transform="translate(0 -0.562)"/></svg>