<svg xmlns="http://www.w3.org/2000/svg" width="33.477" height="22.816" viewBox="0 0 33.477 22.816"><defs><style>.a{fill:#00a6e4;}</style></defs><g transform="translate(0 0)"><path class="a" d="M3.649,10.362l8.659,8.6a.149.149,0,0,1,0,.22l-6.06,6.3a1,1,0,0,0,0,1.444,1.068,1.068,0,0,0,1.481,0l6.036-6.272a.168.168,0,0,1,.233,0l1.473,1.46a6.561,6.561,0,0,0,4.619,1.9,6.691,6.691,0,0,0,4.716-1.955l1.416-1.405a.168.168,0,0,1,.233,0l6.036,6.272a1.068,1.068,0,0,0,1.481,0,1,1,0,0,0,0-1.444l-6.06-6.3a.164.164,0,0,1,0-.22l8.667-8.6a.159.159,0,0,1,.274.11V27.687A2.552,2.552,0,0,1,34.277,30.2H5.95a2.552,2.552,0,0,1-2.575-2.512V10.472A.162.162,0,0,1,3.649,10.362Z" transform="translate(-3.375 -7.384)"/><path class="a" d="M19.95,23.345a4.256,4.256,0,0,1-3.137-1.386L4.226,8.466a2.444,2.444,0,0,1,1.589-.591H34.078a2.428,2.428,0,0,1,1.589.591L23.079,21.959A4.257,4.257,0,0,1,19.95,23.345Z" transform="translate(-3.212 -7.875)"/></g></svg>