<svg xmlns="http://www.w3.org/2000/svg" width="29.956" height="29.956" viewBox="0 0 29.956 29.956"><defs><style>.a{fill:#fff;}</style></defs><path class="a" d="M26.747,2.25H3.21A3.21,3.21,0,0,0,0,5.46V29a3.21,3.21,0,0,0,3.21,3.21H26.747A3.21,3.21,0,0,0,29.956,29V5.46A3.21,3.21,0,0,0,26.747,2.25Zm-3.27,10.618c.013.187.013.381.013.568A12.392,12.392,0,0,1,11.013,25.914a12.42,12.42,0,0,1-6.733-1.966A9.239,9.239,0,0,0,5.336,24a8.793,8.793,0,0,0,5.443-1.872,4.391,4.391,0,0,1-4.1-3.042,4.726,4.726,0,0,0,1.979-.08A4.386,4.386,0,0,1,5.149,14.7v-.053a4.383,4.383,0,0,0,1.979.555,4.376,4.376,0,0,1-1.952-3.651,4.331,4.331,0,0,1,.6-2.213,12.452,12.452,0,0,0,9.04,4.587A4.395,4.395,0,0,1,22.293,9.92a8.594,8.594,0,0,0,2.782-1.056,4.374,4.374,0,0,1-1.926,2.414,8.727,8.727,0,0,0,2.528-.682A9.231,9.231,0,0,1,23.477,12.868Z" transform="translate(0 -2.25)"/></svg>