<svg xmlns="http://www.w3.org/2000/svg" width="22.6" height="25.409" viewBox="0 0 22.6 25.409"><defs><style>.a{fill:#fff;}</style></defs><path class="a" d="M25.852,4.5H5.748A1.333,1.333,0,0,0,4.5,5.9v22.6a1.333,1.333,0,0,0,1.248,1.4H15.8V19.852H13.1V16.146h2.7V13.407c0-3.282,2.025-5.069,4.632-5.069a27.846,27.846,0,0,1,2.9.152v3.428H21.256c-1.418,0-1.689.754-1.689,1.866v2.362h3.378L22.5,19.852H19.567V29.909h6.286a1.333,1.333,0,0,0,1.248-1.4V5.9A1.333,1.333,0,0,0,25.852,4.5Z" transform="translate(-4.5 -4.5)"/></svg>