<svg xmlns="http://www.w3.org/2000/svg" width="24.007" height="24.012" viewBox="0 0 24.007 24.012"><defs><style>.a{fill:#fff;}</style></defs><path class="a" d="M16.29,7.921C15.588,3.6,13.933.562,12.006.562S8.424,3.6,7.722,7.921ZM7.359,12.569a30.344,30.344,0,0,0,.16,3.1h8.971a30.344,30.344,0,0,0,.16-3.1,30.344,30.344,0,0,0-.16-3.1H7.518A30.344,30.344,0,0,0,7.359,12.569ZM23.078,7.921a12.031,12.031,0,0,0-7.649-6.855,16.339,16.339,0,0,1,2.421,6.855ZM8.579,1.066A12.023,12.023,0,0,0,.934,7.921H6.163A16.273,16.273,0,0,1,8.579,1.066ZM23.6,9.47H18.043c.1,1.017.16,2.057.16,3.1s-.058,2.082-.16,3.1h5.548a11.9,11.9,0,0,0,.416-3.1A12.11,12.11,0,0,0,23.6,9.47Zm-17.786,3.1c0-1.041.058-2.082.16-3.1H.416a11.737,11.737,0,0,0,0,6.2H5.964C5.867,14.65,5.809,13.609,5.809,12.569Zm1.912,4.648c.7,4.323,2.358,7.359,4.284,7.359s3.582-3.035,4.284-7.359Zm7.712,6.855a12.043,12.043,0,0,0,7.649-6.855H17.854a16.339,16.339,0,0,1-2.421,6.855ZM.934,17.216a12.031,12.031,0,0,0,7.649,6.855,16.339,16.339,0,0,1-2.421-6.855H.934Z" transform="translate(0 -0.563)"/></svg>