<svg xmlns="http://www.w3.org/2000/svg" width="24.203" height="24.203" viewBox="0 0 24.203 24.203"><defs><style>.a{fill:#fdfdfd;}</style></defs><path class="a" d="M22.474,2.25H1.723A1.736,1.736,0,0,0,0,3.995V24.708a1.736,1.736,0,0,0,1.723,1.745h20.75A1.741,1.741,0,0,0,24.2,24.708V3.995A1.741,1.741,0,0,0,22.474,2.25ZM7.315,23H3.728V11.445H7.32V23ZM5.521,9.867A2.08,2.08,0,1,1,7.6,7.787a2.081,2.081,0,0,1-2.08,2.08ZM20.761,23H17.174V17.377c0-1.34-.027-3.063-1.864-3.063-1.869,0-2.156,1.459-2.156,2.966V23H9.568V11.445h3.441v1.577h.049a3.778,3.778,0,0,1,3.4-1.864c3.63,0,4.306,2.393,4.306,5.505Z" transform="translate(0 -2.25)"/></svg>