<svg xmlns="http://www.w3.org/2000/svg" width="30.475" height="30.476" viewBox="0 0 30.475 30.476"><defs><style>.a{fill:#10172b;}</style></defs><path class="a" d="M552.825,131.1a15.191,15.191,0,0,0-1.211-20.874l-.022-.022-.007-.007a15.186,15.186,0,0,0-8.2-3.97,15.362,15.362,0,0,0-6.071.336h0a15.136,15.136,0,0,0-7.707,4.848l-.007.007-.022.022,0,.007a15.188,15.188,0,0,0,1.1,20.874l.026.022.037.041a15.15,15.15,0,0,0,8.179,3.988l.007,0,.044.007h0a15.378,15.378,0,0,0,3.054.137,15.184,15.184,0,0,0,3.017-.473l.044-.011.007,0a15.122,15.122,0,0,0,7.688-4.867l.041-.048Zm-4.221-2.788a25.981,25.981,0,0,0,.7-6.27l4.73-.262a12.773,12.773,0,0,1-2.6,7.256A27.545,27.545,0,0,0,548.6,128.316Zm.569-8.637a26.25,26.25,0,0,0-1.385-6.152,27.05,27.05,0,0,0,2.729-1.034,12.819,12.819,0,0,1,3.386,6.927Zm-2.271-8.353c-.314-.679-.65-1.348-1.019-2a12.8,12.8,0,0,1,2.651,1.436C548,110.976,547.453,111.157,546.9,111.327Zm-1.4,2.847a23.693,23.693,0,0,1,1.3,5.639l-11.406.631a23.748,23.748,0,0,1,.672-5.749,27.495,27.495,0,0,0,9.431-.521Zm-11.129-2.153c-.565-.111-1.126-.229-1.684-.377a12.658,12.658,0,0,1,2.478-1.721C534.872,110.61,534.614,111.312,534.377,112.021Zm-3.464,1.558a27.764,27.764,0,0,0,2.825.724,25.993,25.993,0,0,0-.7,6.27l-4.73.262A12.772,12.772,0,0,1,530.914,113.579Zm2.256,9.357a26.238,26.238,0,0,0,1.385,6.156,27.377,27.377,0,0,0-2.729,1.034,12.822,12.822,0,0,1-3.386-6.927Zm2.271,8.356c.314.679.65,1.348,1.019,2a12.814,12.814,0,0,1-2.651-1.44C534.348,131.643,534.891,131.462,535.441,131.293Zm1.4-2.847a23.675,23.675,0,0,1-1.3-5.639l11.406-.631a23.76,23.76,0,0,1-.672,5.749A28.023,28.023,0,0,0,536.837,128.446ZM547.97,130.6c.561.111,1.123.229,1.684.377a12.872,12.872,0,0,1-2.478,1.721C547.471,132.009,547.73,131.311,547.97,130.6Zm-5.413-22.071a23.42,23.42,0,0,1,2.035,3.43,25.709,25.709,0,0,1-7.85.432,24.178,24.178,0,0,1,1.647-3.633A12.858,12.858,0,0,1,542.556,108.528Zm-2.766,25.564a23.589,23.589,0,0,1-2.038-3.43,25.71,25.71,0,0,1,7.85-.432,23.615,23.615,0,0,1-1.647,3.634A13.051,13.051,0,0,1,539.791,134.092Z" transform="translate(-525.935 -106.072)"/></svg>