<svg xmlns="http://www.w3.org/2000/svg" width="29.626" height="21.336" viewBox="0 0 29.626 21.336"><defs><style>.a{fill:#10172b;}</style></defs><path class="a" d="M555.459,94.933a1.316,1.316,0,0,0-.048-.24,1.032,1.032,0,0,0-.122-.214.705.705,0,0,0-.074-.137l-.041-.03a1.4,1.4,0,0,0-.2-.159.982.982,0,0,0-.166-.107,1.164,1.164,0,0,0-.21-.059,1.141,1.141,0,0,0-.229-.044l-.052-.011-27.115.277-.052.007a1.171,1.171,0,0,0-.225.052,1.027,1.027,0,0,0-.214.063.883.883,0,0,0-.159.111,1.035,1.035,0,0,0-.2.162l-.041.03a1.252,1.252,0,0,0-.07.14.988.988,0,0,0-.115.214,1.059,1.059,0,0,0-.048.24c0,.052-.026.1-.026.155l.188,18.733a1.163,1.163,0,0,0,1.174,1.152l27.111-.273a1.163,1.163,0,0,0,1.152-1.174l-.188-18.736A1.1,1.1,0,0,0,555.459,94.933ZM551.124,96.3l-10.251,8.711-10.428-8.5ZM528.558,112.93l-.151-15.088,11.746,9.582a1.151,1.151,0,0,0,.746.262,1.171,1.171,0,0,0,.742-.277l11.55-9.819.151,15.088Z" transform="translate(-526.055 -93.932)"/></svg>