<svg xmlns="http://www.w3.org/2000/svg" width="26.406" height="31.334" viewBox="0 0 26.406 31.334"><defs><style>.a{fill:#10172b;}</style></defs><path class="a" d="M551.129,81.682l-3.076-2.234a3.8,3.8,0,0,0-5.317.842L540.5,83.37a3.8,3.8,0,0,0,.842,5.314h0A3.8,3.8,0,0,1,542.185,94l-2.064,2.843a3.8,3.8,0,0,1-5.314.842h0a3.8,3.8,0,0,0-5.313.842l-2.238,3.08a3.811,3.811,0,0,0,.842,5.317l3.08,2.234.236.174a3.808,3.808,0,0,0,5.317-.846l15.479-21.314a3.806,3.806,0,0,0-.842-5.314Z" transform="translate(-526.531 -78.72)"/></svg>