<svg xmlns="http://www.w3.org/2000/svg" width="30.602" height="22.363" viewBox="0 0 30.602 22.363"><defs><style>.a{fill:#fff;}</style></defs><g transform="translate(-3.375 -7.313)"><path class="a" d="M32.937,10.844a3.531,3.531,0,1,1-3.531-3.531A3.531,3.531,0,0,1,32.937,10.844Z" transform="translate(1.04 0)"/><g transform="translate(3.375 8.49)"><path class="a" d="M30.446,15.571a4.9,4.9,0,0,1-1.148-.14l-3.487,3.553a.142.142,0,0,0,0,.206l5.539,5.9a.955.955,0,0,1,0,1.354.959.959,0,0,1-1.354,0L24.48,20.566a.151.151,0,0,0-.213,0l-1.346,1.368a5.923,5.923,0,0,1-4.223,1.78,6.042,6.042,0,0,1-4.311-1.832l-1.295-1.317a.151.151,0,0,0-.213,0L7.362,26.443a.959.959,0,0,1-1.354,0,.955.955,0,0,1,0-1.354l5.539-5.9a.157.157,0,0,0,0-.206L3.625,10.922a.145.145,0,0,0-.25.1V27.157a2.361,2.361,0,0,0,2.354,2.354H31.623a2.361,2.361,0,0,0,2.354-2.354V14.063A4.88,4.88,0,0,1,30.446,15.571Z" transform="translate(-3.375 -8.325)"/><path class="a" d="M25.515,10.792a4.889,4.889,0,0,1,.6-2.354H5.682a2.3,2.3,0,0,0-1.457.515L15.768,20.7a4.032,4.032,0,0,0,5.753,0l5.922-6.025A4.867,4.867,0,0,1,25.515,10.792Z" transform="translate(-3.336 -8.438)"/></g></g></svg>