<svg xmlns="http://www.w3.org/2000/svg" width="137.847" height="183.031" viewBox="0 0 137.847 183.031"><defs><style>.a{fill:#00aab1;}</style></defs><path class="a" d="M175.421,187.055a19.777,19.777,0,1,0-19.8-19.758A19.776,19.776,0,0,0,175.421,187.055Zm0-31.9A12.138,12.138,0,1,1,163.283,167.3,12.138,12.138,0,0,1,175.421,155.158Zm0,0" transform="translate(-106.498 -102.317)"/><path class="a" d="M124.829,335.8h53.147a3.837,3.837,0,0,0,3.829-3.829,31.758,31.758,0,0,0-8.882-22.477,30.231,30.231,0,0,0-43.039,0A31.759,31.759,0,0,0,121,331.975a3.838,3.838,0,0,0,3.829,3.829Zm10.53-20.945a22.556,22.556,0,0,1,32.087,0,23.539,23.539,0,0,1,6.434,13.287H128.926A23.417,23.417,0,0,1,135.359,314.859Zm0,0" transform="translate(-82.479 -208.449)"/><path class="a" d="M113.952,13.019H79.49V3.829A3.84,3.84,0,0,0,75.661,0H52.686a3.84,3.84,0,0,0-3.829,3.829v9.19H14.4A19.154,19.154,0,0,0-4.75,32.164V163.885A19.154,19.154,0,0,0,14.4,183.031h99.556A19.154,19.154,0,0,0,133.1,163.885V32.164A19.154,19.154,0,0,0,113.952,13.019ZM56.516,7.658H71.832V22.975H56.516Zm68.924,156.227a11.521,11.521,0,0,1-11.487,11.487H14.4A11.521,11.521,0,0,1,2.908,163.885V32.164A11.521,11.521,0,0,1,14.4,20.677H48.857V26.8a3.84,3.84,0,0,0,3.829,3.829H75.661A3.84,3.84,0,0,0,79.49,26.8V20.677h34.462a11.521,11.521,0,0,1,11.487,11.487Zm0,0" transform="translate(4.75)"/><path class="a" d="M159.191,505H76.329a3.829,3.829,0,0,0,0,7.658h82.9a3.829,3.829,0,1,0-.038-7.658Zm0,0" transform="translate(-48.836 -350.305)"/><path class="a" d="M138.829,450a3.829,3.829,0,1,0,0,7.658h44.609a3.829,3.829,0,1,0,0-7.658Zm0,0" transform="translate(-92.191 -312.153)"/></svg>