<svg xmlns="http://www.w3.org/2000/svg" width="45.663" height="45.663" viewBox="0 0 45.663 45.663"><defs><style>.a{fill:#496ee9;}</style></defs><g transform="translate(6.689)"><path class="a" d="M80.351,0A5.423,5.423,0,0,0,75,5.44a5.351,5.351,0,1,0,10.7,0A5.424,5.424,0,0,0,80.351,0Zm0,8.116A2.679,2.679,0,0,1,77.676,5.44a2.677,2.677,0,1,1,5.351,0A2.679,2.679,0,0,1,80.351,8.116Z" transform="translate(-75)"/></g><path class="a" d="M41.65,0H22.743a4.018,4.018,0,0,0-4.013,4.013v9.13l-1.176-1.176a3.987,3.987,0,0,0-2.838-1.176H6.689A6.7,6.7,0,0,0,0,17.481v8.027a4.014,4.014,0,0,0,5.351,3.784V41.65a4.011,4.011,0,0,0,6.689,2.989,4.011,4.011,0,0,0,6.689-2.989V23.942a4.029,4.029,0,0,0,3.133-.2l4.5-2.252H41.65a4.018,4.018,0,0,0,4.013-4.013V4.013A4.018,4.018,0,0,0,41.65,0ZM26.016,18.677l-5.35,2.675a1.337,1.337,0,0,1-1.546-.25l-.784-.784a1.339,1.339,0,0,0-2.284.942s0,0,0,0V41.65a1.338,1.338,0,1,1-2.676,0V28.183a1.338,1.338,0,0,0-2.676,0V41.65a1.338,1.338,0,1,1-2.676,0V17.481a1.338,1.338,0,1,0-2.676,0v8.027a1.338,1.338,0,1,1-2.676,0c0-1.009,0-7.2,0-8.027a4.018,4.018,0,0,1,4.013-4.013h8.027a1.329,1.329,0,0,1,.946.392l3.987,3.987a1.338,1.338,0,0,0,1.544.251l3.627-1.814a1.338,1.338,0,0,1,1.2,2.394Zm16.971-1.2a1.339,1.339,0,0,1-1.338,1.338H29.2c.008-.023.017-.045.025-.068a4,4,0,0,0,.177-1.766l7.316-3.658a1.338,1.338,0,1,0-1.2-2.393l-7.316,3.658a4.01,4.01,0,0,0-4.584-.7L21.4,15V4.013a1.339,1.339,0,0,1,1.338-1.338H41.65a1.339,1.339,0,0,1,1.338,1.338Z"/></svg>