<svg xmlns="http://www.w3.org/2000/svg" width="153.612" height="178.343" viewBox="0 0 153.612 178.343"><defs><style>.a{fill:#00aab1;}</style></defs><g transform="translate(0 6.943)"><path class="a" d="M133.134,19.932H112.306V32.95h14.319V57.466a39.053,39.053,0,0,1-78.106,0V32.95H62.4V19.932H42.01A6.508,6.508,0,0,0,35.5,26.441V57.467a52.071,52.071,0,1,0,104.142,0V26.441A6.508,6.508,0,0,0,133.134,19.932Z" transform="translate(-35.501 -19.932)"/></g><g transform="translate(44.911 90.256)"><path class="a" d="M242.541,270.83v30.809a32.544,32.544,0,0,1-65.089,0V259.114H164.434v42.525a45.562,45.562,0,1,0,91.124,0V270.83Z" transform="translate(-164.434 -259.114)"/></g><g transform="translate(105.444 59.881)"><path class="a" d="M362.3,171.912a24.083,24.083,0,1,0,24.083,24.083A24.109,24.109,0,0,0,362.3,171.912Zm0,35.148A11.065,11.065,0,1,1,373.364,196,11.079,11.079,0,0,1,362.3,207.06Z" transform="translate(-338.216 -171.912)"/></g><g transform="translate(20.177)"><path class="a" d="M99.937,0a6.508,6.508,0,0,0-6.509,6.509V20.395a6.509,6.509,0,0,0,13.018,0V6.509A6.508,6.508,0,0,0,99.937,0Z" transform="translate(-93.428 0)"/></g><g transform="translate(70.513)"><path class="a" d="M244.443,0a6.508,6.508,0,0,0-6.509,6.509V20.395a6.509,6.509,0,1,0,13.018,0V6.509A6.508,6.508,0,0,0,244.443,0Z" transform="translate(-237.934 0)"/></g></svg>