<svg xmlns="http://www.w3.org/2000/svg" width="49.293" height="49.293" viewBox="0 0 49.293 49.293"><defs><style>.a{fill:#fb2828;}</style></defs><path class="a" d="M64.471,32.431H59.049a10.661,10.661,0,0,1-9.424-5.654L48.62,24.892a9.022,9.022,0,0,0-4.688-4.168V19.286a3.286,3.286,0,1,0-6.572,0v1.438a9.022,9.022,0,0,0-4.688,4.168l-1.005,1.885a10.661,10.661,0,0,1-9.424,5.654H16.822a.822.822,0,0,0-.822.822v3.286a.822.822,0,0,0,.822.822h5.4l-2.689,7.394H18.465a.822.822,0,0,0-.822.822,6.572,6.572,0,0,0,13.145,0,.822.822,0,0,0-.822-.822H28.9L26.21,37.36h2a9.856,9.856,0,0,0,6.493-2.44l2.161-1.891a5.736,5.736,0,0,1,.492-.384V54.419l-1.329,2.659H34.074a.822.822,0,0,0-.657.329L31.2,60.363H27.5a.822.822,0,0,0-.822.822v3.286a.822.822,0,0,0,.822.822H53.791a.822.822,0,0,0,.822-.822V61.185a.822.822,0,0,0-.822-.822h-3.7l-2.218-2.958a.821.821,0,0,0-.657-.329H45.262l-1.329-2.659V32.645a5.734,5.734,0,0,1,.492.384h0l2.162,1.892a9.855,9.855,0,0,0,6.492,2.439h2l-2.689,7.394H51.326a.822.822,0,0,0-.822.822,6.572,6.572,0,1,0,13.145,0,.822.822,0,0,0-.822-.822H61.76L59.072,37.36h5.4a.822.822,0,0,0,.822-.822V33.252a.822.822,0,0,0-.822-.822ZM39,19.286a1.643,1.643,0,1,1,3.286,0v.972a9.031,9.031,0,0,0-3.286,0ZM24.215,50.5A4.937,4.937,0,0,1,19.355,46.4h9.722A4.937,4.937,0,0,1,24.215,50.5Zm2.935-5.751h-5.87l2.689-7.394h.492Zm25.819,18.9H28.323V62.006H52.969ZM48.04,60.363H33.252l1.232-1.643H46.808ZM42.376,54.98l1.049,2.1H37.868l1.049-2.1A.822.822,0,0,0,39,54.613V31.851a5.706,5.706,0,0,1,3.286,0V54.613a.821.821,0,0,0,.087.367Zm14.7-4.475A4.937,4.937,0,0,1,52.216,46.4h9.722A4.937,4.937,0,0,1,57.077,50.5Zm2.935-5.751h-5.87l2.689-7.394h.492Zm3.638-9.037H53.079a8.213,8.213,0,0,1-5.411-2.033l-2.161-1.891h0a7.381,7.381,0,0,0-9.721,0l-2.162,1.892a8.213,8.213,0,0,1-5.41,2.033H17.643V34.074h4.6A12.3,12.3,0,0,0,33.117,27.55l1.005-1.885a7.394,7.394,0,0,1,13.048,0l1.005,1.885a12.3,12.3,0,0,0,10.873,6.524h4.6Z" transform="translate(-16 -16)"/><path class="a" d="M234.465,88a2.465,2.465,0,1,0,2.465,2.465A2.465,2.465,0,0,0,234.465,88Zm0,3.286a.822.822,0,1,1,.822-.822A.822.822,0,0,1,234.465,91.286Z" transform="translate(-209.818 -80.606)"/></svg>