<svg xmlns="http://www.w3.org/2000/svg" width="27.294" height="31.055" viewBox="0 0 27.294 31.055"><defs><style>.a{fill:#c2bfbf;}</style></defs><g transform="translate(-31)"><g transform="translate(31)"><path class="a" d="M49.832,20.518c3.3-5.185,2.889-4.539,2.984-4.674a9.933,9.933,0,0,0,1.839-5.776,10.008,10.008,0,1,0-18.124,5.85l2.932,4.6C36.328,21,31,22.435,31,25.6c0,1.152.752,2.794,4.334,4.073a28.716,28.716,0,0,0,9.313,1.385c6.552,0,13.647-1.848,13.647-5.459C58.294,22.435,52.972,21,49.832,20.518Zm-11.781-5.6-.031-.046A8.188,8.188,0,1,1,51.34,14.78c-.088.116.37-.595-6.693,10.488Zm6.6,14.318c-7.157,0-11.827-2.1-11.827-3.639,0-1.032,2.4-2.729,7.718-3.391L43.88,27.45a.91.91,0,0,0,1.534,0l3.342-5.244c5.318.661,7.718,2.359,7.718,3.391C56.475,27.118,51.846,29.235,44.647,29.235Z" transform="translate(-31)"/></g><g transform="translate(40.098 5.519)"><path class="a" d="M185.549,91a4.549,4.549,0,1,0,4.549,4.549A4.554,4.554,0,0,0,185.549,91Zm0,7.278a2.729,2.729,0,1,1,2.729-2.729A2.733,2.733,0,0,1,185.549,98.278Z" transform="translate(-181 -91)"/></g></g></svg>