<svg xmlns="http://www.w3.org/2000/svg" width="47.425" height="54.079" viewBox="0 0 47.425 54.079"><defs><style>.a{fill:none;stroke:#03df8c;stroke-width:1.5px;}</style></defs><g transform="translate(0.75 0.75)"><path class="a" d="M122.829,27.83h18.485a1.539,1.539,0,0,0,1.54-1.54V7.7a1.539,1.539,0,0,0-1.54-1.54h-4.621V4.621a4.621,4.621,0,0,0-9.242,0v1.54h-4.621a1.54,1.54,0,0,0-1.54,1.54V26.289A1.54,1.54,0,0,0,122.829,27.83Zm7.7-23.209a1.54,1.54,0,1,1,3.081,0v1.54h-3.081Zm0,0" transform="translate(-108.833)"/><path class="a" d="M45.679,241.743A1.541,1.541,0,0,0,44.361,241a7.3,7.3,0,0,0-6.464,3.91l-4.725,9.018a4.612,4.612,0,0,1-4.094,2.476H18.617a1.54,1.54,0,1,1,0-3.081H29.077a1.539,1.539,0,0,0,1.366-.826l1.765-3.37a1.342,1.342,0,0,0-1.191-1.966H15.006a7.653,7.653,0,0,0-5.446,2.256l-9.11,9.11a1.54,1.54,0,0,0,0,2.178l7.7,7.672a1.539,1.539,0,0,0,2.178,0l5.843-5.813h12.9a10.757,10.757,0,0,0,9.552-5.778l7.094-13.531a1.535,1.535,0,0,0-.045-1.513Zm0,0" transform="translate(0 -216.251)"/></g></svg>