<svg xmlns="http://www.w3.org/2000/svg" width="40.541" height="45.483" viewBox="0 0 40.541 45.483"><defs><style>.a{fill:#f2971c;}</style></defs><path class="a" d="M40.143,21.579l-1.81-.778V19.563A17.819,17.819,0,0,0,26.395,2.682V.938A.938.938,0,0,0,25.457,0H15.423a.938.938,0,0,0-.938.938V2.691A17.819,17.819,0,0,0,2.547,19.572v1.247l-1.791.76a.937.937,0,0,0-.572.863v4.923a.938.938,0,0,0,.938.938H2.341v1.876a.938.938,0,0,0,.938.938H6.645a14.188,14.188,0,0,0,1.4,3.357L5.66,36.855a.937.937,0,0,0,0,1.322l3.986,3.986a.937.937,0,0,0,1.322,0l2.382-2.382a14.167,14.167,0,0,0,3.348,1.4v3.367a.938.938,0,0,0,.938.938h5.627a.938.938,0,0,0,.938-.938V41.179a14.154,14.154,0,0,0,3.357-1.4l2.382,2.382a.937.937,0,0,0,1.322,0l3.986-3.986a.937.937,0,0,0,0-1.322l-2.382-2.382a14.186,14.186,0,0,0,1.4-3.357H37.63a.938.938,0,0,0,.938-.938V28.3h1.219a.938.938,0,0,0,.938-.938V22.441A.938.938,0,0,0,40.143,21.579ZM16.342,1.885h8.177v15.67H16.361ZM36.7,29.241H33.578a.938.938,0,0,0-.938.741,12.326,12.326,0,0,1-1.716,4.126.938.938,0,0,0,.122,1.172l2.241,2.241-2.682,2.663-2.241-2.241a.938.938,0,0,0-1.172-.122,12.333,12.333,0,0,1-4.126,1.716.938.938,0,0,0-.741.938v3.16H18.574V40.447a.937.937,0,0,0-.741-.938,12.292,12.292,0,0,1-4.126-1.716.938.938,0,0,0-1.172.122l-2.241,2.241L7.639,37.5,9.88,35.261A.938.938,0,0,0,10,34.089a12.339,12.339,0,0,1-1.744-4.108.938.938,0,0,0-.938-.741H4.2V28.3h8.571a7.728,7.728,0,0,0,15.342,0h8.581ZM14.682,28.3H26.226a5.852,5.852,0,0,1-11.553,0Zm24.177-1.876H2.05V23.06l1.81-.778a.936.936,0,0,0,.572-.863V19.543A15.941,15.941,0,0,1,14.485,4.679V18.493a.938.938,0,0,0,.938.938H25.476a.938.938,0,0,0,.938-.938V4.679A15.942,15.942,0,0,1,36.476,19.562v1.876a.936.936,0,0,0,.572.863l1.81.778v3.348Zm0,0" transform="translate(-0.184)"/></svg>