<svg xmlns="http://www.w3.org/2000/svg" width="32.362" height="23.119" viewBox="0 0 32.362 23.119"><defs><style>.a{fill:#0a2a61;}</style></defs><path class="a" d="M41.012,112.362,37,108.846l-11.444,9.81a2.266,2.266,0,0,0,1.592.634H54.864a2.281,2.281,0,0,0,1.592-.634l-11.444-9.81Zm0,0" transform="translate(-24.825 -96.171)"/><path class="a" d="M56.456,106.459a2.274,2.274,0,0,0-1.592-.63H27.152a2.3,2.3,0,0,0-1.592.63l15.452,13.247Zm0,0" transform="translate(-24.825 -105.829)"/><path class="a" d="M25.385,106.312v19.2l11.18-9.5Zm0,0" transform="translate(-25.385 -104.283)"/><path class="a" d="M30.429,116.023l11.171,9.5V106.31Zm0,0" transform="translate(-9.238 -104.289)"/></svg>