<svg xmlns="http://www.w3.org/2000/svg" width="32.362" height="32.362" viewBox="0 0 32.362 32.362"><defs><style>.a{fill:#0a2a61;fill-rule:evenodd;}</style></defs><g transform="translate(7.882 7.293)"><path class="a" d="M27.261,80.3a5.627,5.627,0,0,1,1.916-4.218c.475-.454,1.147-1.277,1.874-1.176.769.088,1.323.937,1.714,1.525.651,1.034,1.731,2.538.731,3.693-.462.55-1.2.84-1.634,1.424a1.99,1.99,0,0,0,.118,2.017A11.989,11.989,0,0,0,35.017,87.2a2.7,2.7,0,0,0,1.962.836c.744-.122,1.328-.941,1.878-1.4,1.4-1.134,2.949.42,3.979,1.344a2.381,2.381,0,0,1,1.025,1.706c-.025.718-.962,1.307-1.47,1.723a5.643,5.643,0,0,1-4.827,1.134,10.884,10.884,0,0,1-4.831-2.756,21.993,21.993,0,0,1-3.693-4.365,11.828,11.828,0,0,1-1.223-2.37,12.171,12.171,0,0,1-.555-2.748C27.274,79.368,27.324,80.8,27.261,80.3Z" transform="translate(-27.261 -74.898)"/></g><path class="a" d="M41.568,73.162A16.181,16.181,0,1,0,57.747,89.345,16.18,16.18,0,0,0,41.568,73.162Zm0,29.043a12.862,12.862,0,1,1,12.86-12.86A12.864,12.864,0,0,1,41.568,102.205Z" transform="translate(-25.385 -73.162)"/></svg>