<svg xmlns="http://www.w3.org/2000/svg" width="21.336" height="21.34" viewBox="0 0 21.336 21.34"><defs><style>.a{fill:#fdfdfd;}</style></defs><path class="a" d="M14.478,7.1c-.624-3.842-2.1-6.54-3.808-6.54S7.486,3.26,6.862,7.1ZM6.54,11.233a26.967,26.967,0,0,0,.142,2.754h7.972a26.967,26.967,0,0,0,.142-2.754,26.967,26.967,0,0,0-.142-2.754H6.682A26.967,26.967,0,0,0,6.54,11.233ZM20.51,7.1a10.693,10.693,0,0,0-6.8-6.092A14.521,14.521,0,0,1,15.863,7.1ZM7.624,1.01A10.685,10.685,0,0,0,.83,7.1H5.477A14.462,14.462,0,0,1,7.624,1.01ZM20.97,8.479H16.035c.09.9.142,1.829.142,2.754s-.052,1.85-.142,2.754h4.931a10.578,10.578,0,0,0,.37-2.754A10.763,10.763,0,0,0,20.97,8.479ZM5.163,11.233c0-.925.052-1.85.142-2.754H.37a10.431,10.431,0,0,0,0,5.507H5.3C5.215,13.083,5.163,12.158,5.163,11.233Zm1.7,4.13c.624,3.842,2.1,6.54,3.808,6.54s3.184-2.7,3.808-6.54Zm6.854,6.092a10.7,10.7,0,0,0,6.8-6.092H15.867a14.521,14.521,0,0,1-2.151,6.092ZM.83,15.363a10.693,10.693,0,0,0,6.8,6.092,14.521,14.521,0,0,1-2.151-6.092H.83Z" transform="translate(0 -0.563)"/></svg>