<svg xmlns="http://www.w3.org/2000/svg" width="20.085" height="22.582" viewBox="0 0 20.085 22.582"><defs><style>.a{fill:#fdfdfd;}</style></defs><path class="a" d="M23.476,4.5H5.609A1.184,1.184,0,0,0,4.5,5.747V25.835a1.184,1.184,0,0,0,1.109,1.247h8.934V18.143h-2.4V14.85h2.4V12.415c0-2.917,1.8-4.5,4.116-4.5a24.748,24.748,0,0,1,2.579.135v3.046H19.391c-1.261,0-1.5.67-1.5,1.658v2.1h3L20.5,18.143H17.89v8.939h5.586a1.184,1.184,0,0,0,1.109-1.247V5.747A1.184,1.184,0,0,0,23.476,4.5Z" transform="translate(-4.5 -4.5)"/></svg>