<svg xmlns="http://www.w3.org/2000/svg" width="24.898" height="24.903" viewBox="0 0 24.898 24.903"><defs><style>.a{fill:#fff;}</style></defs><path class="a" d="M8,8.194C8.731,3.711,10.448.562,12.447.562s3.715,3.148,4.443,7.632Zm9.263,4.82a31.47,31.47,0,0,1-.166,3.213H7.8A31.243,31.243,0,0,1,7.8,9.8h9.3A31.47,31.47,0,0,1,17.267,13.014ZM.964,8.194A12.478,12.478,0,0,1,8.9,1.085a16.946,16.946,0,0,0-2.51,7.11ZM16,1.085a12.47,12.47,0,0,1,7.928,7.11H18.507A16.877,16.877,0,0,0,16,1.085ZM.427,9.8H6.186c-.105,1.054-.166,2.134-.166,3.213s.06,2.159.166,3.213H.432A12.344,12.344,0,0,1,0,13.014,12.56,12.56,0,0,1,.427,9.8Zm18.447,3.213c0-1.079-.06-2.159-.166-3.213h5.759a12.172,12.172,0,0,1,0,6.427H18.713C18.813,15.173,18.873,14.094,18.873,13.014Zm-1.983,4.82c-.728,4.484-2.445,7.632-4.443,7.632S8.731,22.318,8,17.834Zm-8,7.109A12.49,12.49,0,0,1,.959,17.834H6.381a16.946,16.946,0,0,0,2.51,7.109Zm15.037-7.109A12.478,12.478,0,0,1,16,24.944a16.946,16.946,0,0,0,2.51-7.109h5.423Z" transform="translate(0 -0.563)"/></svg>