<svg xmlns="http://www.w3.org/2000/svg" width="34.458" height="34.458" viewBox="0 0 34.458 34.458"><defs><style>.a{fill:#21707b;}</style></defs><path class="a" d="M32,2.25H2.454A2.472,2.472,0,0,0,0,4.734V34.224a2.472,2.472,0,0,0,2.454,2.484H32a2.478,2.478,0,0,0,2.461-2.484V4.734A2.478,2.478,0,0,0,32,2.25ZM10.414,31.785H5.307V15.341h5.115V31.785ZM7.861,13.095a2.961,2.961,0,1,1,2.961-2.961,2.962,2.962,0,0,1-2.961,2.961Zm21.7,18.69H24.451v-8c0-1.907-.038-4.361-2.654-4.361-2.661,0-3.069,2.077-3.069,4.223v8.138H13.622V15.341h4.9v2.246h.069a5.379,5.379,0,0,1,4.838-2.654c5.169,0,6.13,3.407,6.13,7.838Z" transform="translate(0 -2.25)"/></svg>