<svg xmlns="http://www.w3.org/2000/svg" xmlns:xlink="http://www.w3.org/1999/xlink" width="70" height="70" viewBox="0 0 70 70"><defs><style>.a{fill:#f15a29;}.b{fill:#fff;}.c{filter:url(#a);}</style><filter id="a" x="0" y="0" width="70" height="70" filterUnits="userSpaceOnUse"><feOffset dy="3" input="SourceAlpha"/><feGaussianBlur stdDeviation="3" result="b"/><feFlood flood-opacity="0.161"/><feComposite operator="in" in2="b"/><feComposite in="SourceGraphic"/></filter></defs><g transform="translate(9 6)"><g class="c" transform="matrix(1, 0, 0, 1, -9, -6)"><path class="a" d="M26,0A26,26,0,1,1,0,26,26,26,0,0,1,26,0Z" transform="translate(9 6)"/></g><path class="b" d="M9.432,19.295c1.715,1.715,1.715,3.431,3.431,3.431s3.431-1.715,5.146-3.431,3.431-3.431,3.431-5.146-1.715-1.715-3.431-3.431,3.431-6.862,5.146-6.862S28.3,9,28.3,9c0,3.431-3.525,10.386-6.862,13.723S11.148,29.587,7.717,29.587c0,0-5.146-3.431-5.146-5.146S7.717,17.579,9.432,19.295Z" transform="translate(10.619 9.144)"/></g></svg>