<svg xmlns="http://www.w3.org/2000/svg" width="23.001" height="25.364" viewBox="0 0 23.001 25.364"><defs><style>.a{fill:#fff;}</style></defs><path class="a" d="M24.655,11.707a13.081,13.081,0,0,1-.422,2.837,8.21,8.21,0,0,1-1.1,2.492,5.821,5.821,0,0,1-1.87,1.77,5.278,5.278,0,0,1-2.731.674A3.959,3.959,0,0,1,16.554,19a3.382,3.382,0,0,1-1.335-1.368,4.23,4.23,0,0,1-3.579,1.8,3.639,3.639,0,0,1-3.124-1.68A5.5,5.5,0,0,1,7.74,15.8a8.394,8.394,0,0,1-.1-2.539,11.8,11.8,0,0,1,.773-3.11,8.453,8.453,0,0,1,1.43-2.382A6.048,6.048,0,0,1,11.807,6.25a5.484,5.484,0,0,1,2.39-.531,7.432,7.432,0,0,1,1.43.122,5.852,5.852,0,0,1,1.109.333,6,6,0,0,1,.919.485c.281.181.563.368.843.558L17.8,15.2a2.655,2.655,0,0,0,.021.935,1.308,1.308,0,0,0,.285.577,1.027,1.027,0,0,0,.463.3A1.718,1.718,0,0,0,20.2,16.7a3.466,3.466,0,0,0,.872-1.109,7.146,7.146,0,0,0,.586-1.667,11.44,11.44,0,0,0,.257-2.076,13.269,13.269,0,0,0-.327-3.88,7.712,7.712,0,0,0-1.436-3,6.668,6.668,0,0,0-2.574-1.934,9.342,9.342,0,0,0-3.75-.686,8.28,8.28,0,0,0-3.709.808A8.51,8.51,0,0,0,7.3,5.392,10.756,10.756,0,0,0,5.456,8.763a15.192,15.192,0,0,0-.777,4.2,13.967,13.967,0,0,0,.4,4.286,7.74,7.74,0,0,0,1.566,3.072,6.535,6.535,0,0,0,2.653,1.845,10.177,10.177,0,0,0,3.661.612,12.54,12.54,0,0,0,2.4-.258c.4-.079.772-.174,1.13-.279a8.505,8.505,0,0,0,.973-.349l.5,2.26a5.577,5.577,0,0,1-1.089.539,10.482,10.482,0,0,1-1.287.372,12.558,12.558,0,0,1-2.688.3A14.1,14.1,0,0,1,8,24.575a9.02,9.02,0,0,1-3.573-2.349,9.865,9.865,0,0,1-2.144-3.878,16.544,16.544,0,0,1-.6-5.384A16.42,16.42,0,0,1,2.714,7.8,12.788,12.788,0,0,1,5.2,3.691,11.31,11.31,0,0,1,8.983.983,11.855,11.855,0,0,1,13.887,0a12.377,12.377,0,0,1,4.752.851,9.242,9.242,0,0,1,3.43,2.393,9.822,9.822,0,0,1,2.035,3.7A14.139,14.139,0,0,1,24.655,11.707ZM11.043,13.26a5.392,5.392,0,0,0,.279,2.674,1.434,1.434,0,0,0,1.379.9,1.523,1.523,0,0,0,.472-.087,1.684,1.684,0,0,0,.544-.327,2.9,2.9,0,0,0,.552-.666,5.109,5.109,0,0,0,.507-1.125l.542-6.207a3.239,3.239,0,0,0-.843-.111,2.915,2.915,0,0,0-1.4.322,2.777,2.777,0,0,0-.994.945,5.547,5.547,0,0,0-.659,1.553,13.176,13.176,0,0,0-.374,2.124Z" transform="translate(-1.67)"/></svg>