<svg xmlns="http://www.w3.org/2000/svg" width="28.37" height="28.37" viewBox="0 0 28.37 28.37"><defs><style>.a{fill:#343433;}</style></defs><path class="a" d="M26.343,2.25H2.02A2.035,2.035,0,0,0,0,4.3V28.574A2.035,2.035,0,0,0,2.02,30.62H26.343a2.041,2.041,0,0,0,2.026-2.045V4.3A2.041,2.041,0,0,0,26.343,2.25ZM8.574,26.567h-4.2V13.028H8.581V26.567Zm-2.1-15.388A2.438,2.438,0,1,1,8.91,8.741,2.439,2.439,0,0,1,6.472,11.179ZM24.336,26.567h-4.2V19.981c0-1.57-.032-3.591-2.185-3.591-2.191,0-2.527,1.71-2.527,3.477v6.7h-4.2V13.028h4.034v1.849h.057a4.429,4.429,0,0,1,3.983-2.185c4.255,0,5.047,2.805,5.047,6.453Z" transform="translate(0 -2.25)"/></svg>