<svg xmlns="http://www.w3.org/2000/svg" width="39.129" height="39.129" viewBox="0 0 39.129 39.129"><defs><style>.a{fill:#fff;}</style></defs><path class="a" d="M34.937,2.25H4.192A4.193,4.193,0,0,0,0,6.442V37.187a4.193,4.193,0,0,0,4.192,4.192H34.937a4.193,4.193,0,0,0,4.192-4.192V6.442A4.193,4.193,0,0,0,34.937,2.25ZM30.666,16.12c.017.245.017.5.017.742,0,7.573-5.765,16.3-16.3,16.3a16.223,16.223,0,0,1-8.8-2.568,12.068,12.068,0,0,0,1.38.07,11.485,11.485,0,0,0,7.11-2.446,5.736,5.736,0,0,1-5.354-3.974,6.174,6.174,0,0,0,2.585-.1,5.729,5.729,0,0,1-4.585-5.625v-.07a5.725,5.725,0,0,0,2.585.725A5.716,5.716,0,0,1,6.76,14.4a5.657,5.657,0,0,1,.777-2.891A16.265,16.265,0,0,0,19.346,17.5a5.741,5.741,0,0,1,9.774-5.232,11.225,11.225,0,0,0,3.633-1.38,5.713,5.713,0,0,1-2.515,3.153,11.4,11.4,0,0,0,3.3-.891A12.057,12.057,0,0,1,30.666,16.12Z" transform="translate(0 -2.25)"/></svg>