<svg xmlns="http://www.w3.org/2000/svg" width="34.603" height="38.904" viewBox="0 0 34.603 38.904"><defs><style>.a{fill:#fff;}</style></defs><path class="a" d="M37.192,4.5H6.41A2.041,2.041,0,0,0,4.5,6.648V41.257A2.041,2.041,0,0,0,6.41,43.4H21.8V28H17.665V22.331H21.8V18.137c0-5.025,3.1-7.761,7.092-7.761a42.636,42.636,0,0,1,4.442.233v5.248H30.155c-2.172,0-2.586,1.155-2.586,2.857v3.617h5.172L32.065,28h-4.5V43.4h9.624a2.041,2.041,0,0,0,1.91-2.148V6.648A2.041,2.041,0,0,0,37.192,4.5Z" transform="translate(-4.5 -4.5)"/></svg>