<svg xmlns="http://www.w3.org/2000/svg" width="37.057" height="37.057" viewBox="0 0 37.057 37.057"><defs><style>.a{fill:#fff;}</style></defs><path class="a" d="M34.41,2.25H2.639A2.658,2.658,0,0,0,0,4.922V36.635a2.658,2.658,0,0,0,2.639,2.672H34.41a2.665,2.665,0,0,0,2.647-2.672V4.922A2.665,2.665,0,0,0,34.41,2.25ZM11.2,34.013H5.707V16.328h5.5V34.013Zm-2.746-20.1a3.185,3.185,0,1,1,3.185-3.185A3.186,3.186,0,0,1,8.454,13.913Zm23.334,20.1H26.3v-8.6c0-2.051-.041-4.69-2.854-4.69-2.862,0-3.3,2.233-3.3,4.541v8.751H14.649V16.328h5.269v2.415h.074a5.785,5.785,0,0,1,5.2-2.854c5.559,0,6.592,3.664,6.592,8.429Z" transform="translate(0 -2.25)"/></svg>