<svg xmlns="http://www.w3.org/2000/svg" width="20.605" height="20.605" viewBox="0 0 20.605 20.605"><defs><style>.a{fill:#acacac;}</style></defs><path class="a" d="M18.4,2.25H2.208A2.208,2.208,0,0,0,0,4.458v16.19a2.208,2.208,0,0,0,2.208,2.208H18.4a2.208,2.208,0,0,0,2.208-2.208V4.458A2.208,2.208,0,0,0,18.4,2.25Zm-2.249,7.3c.009.129.009.262.009.391a8.524,8.524,0,0,1-8.582,8.582,8.543,8.543,0,0,1-4.632-1.352,6.355,6.355,0,0,0,.727.037,6.048,6.048,0,0,0,3.744-1.288,3.02,3.02,0,0,1-2.819-2.093,3.251,3.251,0,0,0,1.361-.055,3.017,3.017,0,0,1-2.415-2.962v-.037a3.015,3.015,0,0,0,1.361.382A3.01,3.01,0,0,1,3.56,8.648a2.979,2.979,0,0,1,.409-1.522,8.565,8.565,0,0,0,6.218,3.155,3.023,3.023,0,0,1,5.147-2.755A5.911,5.911,0,0,0,17.248,6.8a3.009,3.009,0,0,1-1.325,1.66,6,6,0,0,0,1.739-.469A6.349,6.349,0,0,1,16.148,9.554Z" transform="translate(0 -2.25)"/></svg>