<svg xmlns="http://www.w3.org/2000/svg" width="19.514" height="19.514" viewBox="0 0 19.514 19.514"><defs><style>.a{fill:#acacac;}</style></defs><path class="a" d="M18.12,2.25H1.389A1.4,1.4,0,0,0,0,3.657v16.7a1.4,1.4,0,0,0,1.389,1.407H18.12a1.4,1.4,0,0,0,1.394-1.407V3.657A1.4,1.4,0,0,0,18.12,2.25ZM5.9,18.976H3.005V9.664H5.9v9.313ZM4.452,8.392A1.677,1.677,0,1,1,6.129,6.715,1.678,1.678,0,0,1,4.452,8.392ZM16.739,18.976H13.847v-4.53c0-1.08-.022-2.47-1.5-2.47-1.507,0-1.738,1.176-1.738,2.391v4.608H7.714V9.664h2.775v1.272h.039a3.046,3.046,0,0,1,2.74-1.5c2.927,0,3.472,1.93,3.472,4.439Z" transform="translate(0 -2.25)"/></svg>