<svg xmlns="http://www.w3.org/2000/svg" width="19.356" height="19.36" viewBox="0 0 19.356 19.36"><defs><style>.a{fill:#acacac;}</style></defs><path class="a" d="M13.135,6.5C12.569,3.01,11.234.562,9.68.562S6.792,3.01,6.226,6.5Zm-7.2,3.747a24.465,24.465,0,0,0,.129,2.5h7.233a24.466,24.466,0,0,0,.129-2.5,24.466,24.466,0,0,0-.129-2.5H6.062A24.465,24.465,0,0,0,5.933,10.243ZM18.607,6.5A9.7,9.7,0,0,0,12.44.968,13.174,13.174,0,0,1,14.391,6.5ZM6.917.968A9.694,9.694,0,0,0,.753,6.5H4.969A13.121,13.121,0,0,1,6.917.968ZM19.025,7.745H14.548c.082.82.129,1.659.129,2.5s-.047,1.678-.129,2.5h4.473a9.6,9.6,0,0,0,.336-2.5A9.764,9.764,0,0,0,19.025,7.745Zm-14.341,2.5c0-.839.047-1.678.129-2.5H.336a9.463,9.463,0,0,0,0,5H4.809C4.731,11.921,4.684,11.082,4.684,10.243ZM6.226,13.99c.566,3.486,1.9,5.933,3.454,5.933s2.888-2.447,3.454-5.933Zm6.218,5.527a9.71,9.71,0,0,0,6.167-5.527H14.4A13.174,13.174,0,0,1,12.444,19.517ZM.753,13.99a9.7,9.7,0,0,0,6.167,5.527A13.174,13.174,0,0,1,4.969,13.99H.753Z" transform="translate(0 -0.563)"/></svg>