<svg xmlns="http://www.w3.org/2000/svg" width="43.163" height="43.163" viewBox="0 0 43.163 43.163"><defs><style>.a{fill:#fff;}</style></defs><path class="a" d="M40.08,2.25H3.073A3.1,3.1,0,0,0,0,5.362V42.3a3.1,3.1,0,0,0,3.073,3.112H40.08A3.1,3.1,0,0,0,43.163,42.3V5.362A3.1,3.1,0,0,0,40.08,2.25Zm-27.035,37h-6.4v-20.6h6.407v20.6Zm-3.2-23.412a3.709,3.709,0,1,1,3.709-3.709A3.711,3.711,0,0,1,9.847,15.835ZM37.026,39.247h-6.4V29.227c0-2.389-.048-5.463-3.324-5.463-3.334,0-3.844,2.6-3.844,5.289V39.247h-6.4v-20.6H23.2v2.813h.087a6.738,6.738,0,0,1,6.06-3.324c6.475,0,7.679,4.268,7.679,9.818Z" transform="translate(0 -2.25)"/></svg>