<svg xmlns="http://www.w3.org/2000/svg" width="45.577" height="45.577" viewBox="0 0 45.577 45.577"><defs><style>.a{fill:#fff;}</style></defs><path class="a" d="M40.694,2.25H4.883A4.885,4.885,0,0,0,0,7.133V42.944a4.885,4.885,0,0,0,4.883,4.883H40.694a4.885,4.885,0,0,0,4.883-4.883V7.133A4.885,4.885,0,0,0,40.694,2.25ZM35.719,18.405c.02.285.02.58.02.865,0,8.82-6.714,18.984-18.984,18.984A18.9,18.9,0,0,1,6.511,35.263a14.057,14.057,0,0,0,1.607.081A13.378,13.378,0,0,0,16.4,32.5a6.681,6.681,0,0,1-6.236-4.629,7.191,7.191,0,0,0,3.011-.122,6.673,6.673,0,0,1-5.341-6.552v-.081a6.668,6.668,0,0,0,3.011.844A6.658,6.658,0,0,1,7.874,16.4a6.589,6.589,0,0,1,.905-3.367,18.945,18.945,0,0,0,13.755,6.979,6.687,6.687,0,0,1,11.384-6.094,13.075,13.075,0,0,0,4.232-1.607,6.655,6.655,0,0,1-2.93,3.673,13.278,13.278,0,0,0,3.846-1.038A14.044,14.044,0,0,1,35.719,18.405Z" transform="translate(0 -2.25)"/></svg>