<svg xmlns="http://www.w3.org/2000/svg" width="29.034" height="19.788" viewBox="0 0 29.034 19.788"><defs><style>.a{fill:#0081bb;}</style></defs><g transform="translate(-3.375 -7.875)"><path class="a" d="M32.172,10.356l-7.51,7.462a.129.129,0,0,0,0,.191l5.255,5.46a.868.868,0,0,1,0,1.253.926.926,0,0,1-1.284,0L23.4,19.281a.146.146,0,0,0-.2,0l-1.277,1.266A5.69,5.69,0,0,1,17.913,22.2a5.8,5.8,0,0,1-4.09-1.7l-1.228-1.219a.146.146,0,0,0-.2,0l-5.235,5.44a.926.926,0,0,1-1.284,0,.868.868,0,0,1,0-1.253l5.255-5.46a.142.142,0,0,0,0-.191L3.612,10.356a.138.138,0,0,0-.237.1V25.382A2.213,2.213,0,0,0,5.608,27.56H30.176a2.213,2.213,0,0,0,2.233-2.179V10.451A.14.14,0,0,0,32.172,10.356Z" transform="translate(0 0.103)"/><path class="a" d="M17.856,21.292a3.691,3.691,0,0,0,2.721-1.2l10.917-11.7a2.12,2.12,0,0,0-1.378-.513H5.6a2.106,2.106,0,0,0-1.378.513l10.917,11.7A3.692,3.692,0,0,0,17.856,21.292Z" transform="translate(0.036 0)"/></g></svg>