<svg xmlns="http://www.w3.org/2000/svg" width="40.305" height="45.316" viewBox="0 0 40.305 45.316"><defs><style>.a{fill:#fff;}</style></defs><path class="a" d="M42.58,4.5H6.725A2.377,2.377,0,0,0,4.5,7V47.314a2.377,2.377,0,0,0,2.225,2.5H24.653V31.878H19.835V25.27h4.818V20.384c0-5.853,3.611-9.04,8.26-9.04a49.662,49.662,0,0,1,5.175.271v6.113H34.382c-2.53,0-3.012,1.345-3.012,3.328V25.27h6.025l-.787,6.609H31.37V49.816H42.58a2.377,2.377,0,0,0,2.225-2.5V7A2.377,2.377,0,0,0,42.58,4.5Z" transform="translate(-4.5 -4.5)"/></svg>