<svg xmlns="http://www.w3.org/2000/svg" width="260.691" height="36.385" viewBox="0 0 260.691 36.385"><defs><style>.a{fill:#27aae2;}</style></defs><g transform="translate(0)"><path class="a" d="M34.9,4.5H6.276A1.9,1.9,0,0,0,4.5,6.5V38.679a1.9,1.9,0,0,0,1.776,2H20.588V26.356H16.742V21.081h3.846v-3.9c0-4.673,2.882-7.216,6.594-7.216a39.645,39.645,0,0,1,4.131.217v4.88H28.355c-2.019,0-2.4,1.074-2.4,2.657v3.363h4.81l-.628,5.276H25.951v14.32H34.9a1.9,1.9,0,0,0,1.776-2V6.5A1.9,1.9,0,0,0,34.9,4.5Z" transform="translate(-4.5 -4.291)"/><path class="a" d="M32.486,2.25H3.9A3.9,3.9,0,0,0,0,6.148V34.736a3.9,3.9,0,0,0,3.9,3.9H32.486a3.9,3.9,0,0,0,3.9-3.9V6.148A3.9,3.9,0,0,0,32.486,2.25Zm-3.971,12.9c.016.227.016.463.016.69A15.052,15.052,0,0,1,13.376,30.992,15.085,15.085,0,0,1,5.2,28.6a11.222,11.222,0,0,0,1.283.065A10.679,10.679,0,0,0,13.092,26.4a5.334,5.334,0,0,1-4.979-3.7,5.741,5.741,0,0,0,2.4-.1,5.327,5.327,0,0,1-4.264-5.23v-.065a5.323,5.323,0,0,0,2.4.674,5.315,5.315,0,0,1-2.372-4.434,5.26,5.26,0,0,1,.723-2.688,15.124,15.124,0,0,0,10.98,5.571,5.338,5.338,0,0,1,9.088-4.865,10.438,10.438,0,0,0,3.379-1.283,5.313,5.313,0,0,1-2.339,2.932,10.6,10.6,0,0,0,3.07-.828A11.212,11.212,0,0,1,28.515,15.147Z" transform="translate(72.238 -2.25)"/><path class="a" d="M32,2.25H2.454A2.472,2.472,0,0,0,0,4.734V34.224a2.472,2.472,0,0,0,2.454,2.484H32a2.478,2.478,0,0,0,2.461-2.484V4.734A2.478,2.478,0,0,0,32,2.25ZM10.414,31.785H5.307V15.341h5.115V31.785ZM7.861,13.095a2.961,2.961,0,1,1,2.961-2.961,2.962,2.962,0,0,1-2.961,2.961Zm21.7,18.69H24.451v-8c0-1.907-.038-4.361-2.654-4.361-2.661,0-3.069,2.077-3.069,4.223v8.138H13.622V15.341h4.9v2.246h.069a5.379,5.379,0,0,1,4.838-2.654c5.169,0,6.13,3.407,6.13,7.838Z" transform="translate(151.72 -2.25)"/><path class="a" d="M23.377,11.122C22.37,4.918,19.994.562,17.229.562s-5.141,4.356-6.148,10.56ZM10.56,17.792a43.544,43.544,0,0,0,.229,4.446H23.662a43.545,43.545,0,0,0,.229-4.446,43.545,43.545,0,0,0-.229-4.446H10.789A43.544,43.544,0,0,0,10.56,17.792Zm22.558-6.669A17.265,17.265,0,0,0,22.141,1.285c1.7,2.348,2.862,5.884,3.474,9.837ZM12.31,1.285a17.254,17.254,0,0,0-10.97,9.837h7.5c.6-3.953,1.772-7.489,3.467-9.837Zm21.55,12.06H25.892c.146,1.459.229,2.953.229,4.446s-.083,2.987-.229,4.446h7.961a17.081,17.081,0,0,0,.6-4.446A17.379,17.379,0,0,0,33.861,13.345ZM8.337,17.792c0-1.494.083-2.987.229-4.446H.6a16.843,16.843,0,0,0,0,8.892H8.559C8.42,20.779,8.337,19.285,8.337,17.792Zm2.744,6.669c1.007,6.2,3.383,10.56,6.148,10.56s5.141-4.356,6.148-10.56ZM22.148,34.3a17.282,17.282,0,0,0,10.977-9.837h-7.5c-.611,3.953-1.778,7.489-3.474,9.837ZM1.341,24.461A17.265,17.265,0,0,0,12.317,34.3c-1.7-2.348-2.862-5.884-3.474-9.837h-7.5Z" transform="translate(226.24 0.401)"/></g></svg>