<svg xmlns="http://www.w3.org/2000/svg" width="34.451" height="34.458" viewBox="0 0 34.451 34.458"><defs><style>.a{fill:#27aae2;}</style></defs><path class="a" d="M23.377,11.122C22.37,4.918,19.994.562,17.229.562s-5.141,4.356-6.148,10.56ZM10.56,17.792a43.544,43.544,0,0,0,.229,4.446H23.662a43.545,43.545,0,0,0,.229-4.446,43.545,43.545,0,0,0-.229-4.446H10.789A43.544,43.544,0,0,0,10.56,17.792Zm22.558-6.669A17.265,17.265,0,0,0,22.141,1.285c1.7,2.348,2.862,5.884,3.474,9.837ZM12.31,1.285a17.254,17.254,0,0,0-10.97,9.837h7.5c.6-3.953,1.772-7.489,3.467-9.837Zm21.55,12.06H25.892c.146,1.459.229,2.953.229,4.446s-.083,2.987-.229,4.446h7.961a17.081,17.081,0,0,0,.6-4.446A17.379,17.379,0,0,0,33.861,13.345ZM8.337,17.792c0-1.494.083-2.987.229-4.446H.6a16.843,16.843,0,0,0,0,8.892H8.559C8.42,20.779,8.337,19.285,8.337,17.792Zm2.744,6.669c1.007,6.2,3.383,10.56,6.148,10.56s5.141-4.356,6.148-10.56ZM22.148,34.3a17.282,17.282,0,0,0,10.977-9.837h-7.5c-.611,3.953-1.778,7.489-3.474,9.837ZM1.341,24.461A17.265,17.265,0,0,0,12.317,34.3c-1.7-2.348-2.862-5.884-3.474-9.837h-7.5Z" transform="translate(0 -0.562)"/></svg>