<svg xmlns="http://www.w3.org/2000/svg" width="42.815" height="42.824" viewBox="0 0 42.815 42.824"><defs><style>.a{fill:#fff;}</style></defs><path class="a" d="M29.053,13.686C27.8,5.976,24.848.562,21.412.562s-6.389,5.413-7.641,13.123ZM13.123,21.974a54.116,54.116,0,0,0,.285,5.526h16a54.117,54.117,0,0,0,.285-5.526,54.117,54.117,0,0,0-.285-5.526h-16A54.116,54.116,0,0,0,13.123,21.974Zm28.034-8.288A21.457,21.457,0,0,0,27.516,1.46c2.107,2.918,3.557,7.313,4.317,12.225ZM15.3,1.46A21.443,21.443,0,0,0,1.666,13.686h9.325c.751-4.913,2.2-9.307,4.308-12.225ZM42.081,16.449h-9.9c.181,1.813.285,3.669.285,5.526s-.1,3.713-.285,5.526h9.894a21.227,21.227,0,0,0,.743-5.526A21.6,21.6,0,0,0,42.081,16.449ZM10.361,21.974c0-1.856.1-3.713.285-5.526H.743a20.932,20.932,0,0,0,0,11.051h9.894C10.464,25.687,10.361,23.831,10.361,21.974Zm3.41,8.288c1.252,7.71,4.2,13.123,7.641,13.123s6.389-5.413,7.641-13.123ZM27.525,42.488A21.478,21.478,0,0,0,41.166,30.263H31.841C31.082,35.175,29.631,39.57,27.525,42.488ZM1.666,30.263A21.457,21.457,0,0,0,15.308,42.488c-2.107-2.918-3.557-7.313-4.317-12.225Z" transform="translate(0 -0.562)"/></svg>