<svg xmlns="http://www.w3.org/2000/svg" width="183.179" height="25.556" viewBox="0 0 183.179 25.556"><defs><style>.a{fill:#fdfdfd;}</style></defs><g transform="translate(-575 -483.791)"><path class="a" d="M25.852,4.5H5.748A1.333,1.333,0,0,0,4.5,5.9v22.6a1.333,1.333,0,0,0,1.248,1.4H15.8V19.852H13.1V16.146h2.7V13.407c0-3.282,2.025-5.069,4.632-5.069a27.846,27.846,0,0,1,2.9.152v3.428H21.256c-1.418,0-1.689.754-1.689,1.866v2.362h3.378L22.5,19.852H19.567V29.909h6.286a1.333,1.333,0,0,0,1.248-1.4V5.9A1.333,1.333,0,0,0,25.852,4.5Z" transform="translate(570.5 479.438)"/><path class="a" d="M22.818,2.25H2.738A2.739,2.739,0,0,0,0,4.988v20.08a2.739,2.739,0,0,0,2.738,2.738h20.08a2.739,2.739,0,0,0,2.738-2.738V4.988A2.739,2.739,0,0,0,22.818,2.25Zm-2.789,9.059c.011.16.011.325.011.485A10.572,10.572,0,0,1,9.4,22.438a10.6,10.6,0,0,1-5.744-1.677,7.883,7.883,0,0,0,.9.046,7.5,7.5,0,0,0,4.643-1.6,3.746,3.746,0,0,1-3.5-2.6,4.032,4.032,0,0,0,1.689-.068,3.742,3.742,0,0,1-2.995-3.674v-.046a3.739,3.739,0,0,0,1.689.473,3.733,3.733,0,0,1-1.666-3.115A3.7,3.7,0,0,1,4.923,8.3a10.623,10.623,0,0,0,7.712,3.913,3.749,3.749,0,0,1,6.383-3.417,7.331,7.331,0,0,0,2.373-.9,3.732,3.732,0,0,1-1.643,2.059,7.445,7.445,0,0,0,2.156-.582A7.875,7.875,0,0,1,20.028,11.309Z" transform="translate(625.739 481.541)"/><path class="a" d="M22.474,2.25H1.723A1.736,1.736,0,0,0,0,3.995V24.708a1.736,1.736,0,0,0,1.723,1.745h20.75A1.741,1.741,0,0,0,24.2,24.708V3.995A1.741,1.741,0,0,0,22.474,2.25ZM7.315,23H3.728V11.445H7.32V23ZM5.521,9.867A2.08,2.08,0,1,1,7.6,7.787a2.081,2.081,0,0,1-2.08,2.08ZM20.761,23H17.174V17.377c0-1.34-.027-3.063-1.864-3.063-1.869,0-2.156,1.459-2.156,2.966V23H9.568V11.445h3.441v1.577h.049a3.778,3.778,0,0,1,3.4-1.864c3.63,0,4.306,2.393,4.306,5.505Z" transform="translate(681.566 481.541)"/><path class="a" d="M16.29,7.921C15.588,3.6,13.933.562,12.006.562S8.424,3.6,7.722,7.921ZM7.359,12.569a30.344,30.344,0,0,0,.16,3.1h8.971a30.344,30.344,0,0,0,.16-3.1,30.344,30.344,0,0,0-.16-3.1H7.518A30.344,30.344,0,0,0,7.359,12.569ZM23.078,7.921a12.031,12.031,0,0,0-7.649-6.855,16.339,16.339,0,0,1,2.421,6.855ZM8.579,1.066A12.023,12.023,0,0,0,.934,7.921H6.163A16.273,16.273,0,0,1,8.579,1.066ZM23.6,9.47H18.043c.1,1.017.16,2.057.16,3.1s-.058,2.082-.16,3.1h5.548a11.9,11.9,0,0,0,.416-3.1A12.11,12.11,0,0,0,23.6,9.47Zm-17.786,3.1c0-1.041.058-2.082.16-3.1H.416a11.737,11.737,0,0,0,0,6.2H5.964C5.867,14.65,5.809,13.609,5.809,12.569Zm1.912,4.648c.7,4.323,2.358,7.359,4.284,7.359s3.582-3.035,4.284-7.359Zm7.712,6.855a12.043,12.043,0,0,0,7.649-6.855H17.854a16.339,16.339,0,0,1-2.421,6.855ZM.934,17.216a12.031,12.031,0,0,0,7.649,6.855,16.339,16.339,0,0,1-2.421-6.855H.934Z" transform="translate(734.172 483.419)"/></g></svg>