<svg xmlns="http://www.w3.org/2000/svg" width="28.527" height="31.459" viewBox="0 0 28.527 31.459"><defs><style>.a{fill:#fff;}</style></defs><path class="a" d="M30.178,14.52a16.224,16.224,0,0,1-.523,3.519,10.183,10.183,0,0,1-1.368,3.09,7.22,7.22,0,0,1-2.32,2.2,6.547,6.547,0,0,1-3.387.835,4.91,4.91,0,0,1-2.449-.6,4.2,4.2,0,0,1-1.655-1.7,5.246,5.246,0,0,1-4.439,2.229,4.514,4.514,0,0,1-3.875-2.084A6.821,6.821,0,0,1,9.2,19.6a10.411,10.411,0,0,1-.126-3.149,14.629,14.629,0,0,1,.959-3.857,10.484,10.484,0,0,1,1.773-2.955,7.5,7.5,0,0,1,2.438-1.883,6.8,6.8,0,0,1,2.964-.659,9.218,9.218,0,0,1,1.773.151,7.258,7.258,0,0,1,1.376.413,7.441,7.441,0,0,1,1.14.6c.348.224.7.456,1.046.692l-.861,9.908a3.293,3.293,0,0,0,.026,1.16,1.623,1.623,0,0,0,.354.716,1.274,1.274,0,0,0,.574.374,2.131,2.131,0,0,0,2.017-.4,4.3,4.3,0,0,0,1.081-1.376,8.863,8.863,0,0,0,.727-2.068,14.189,14.189,0,0,0,.318-2.575,16.458,16.458,0,0,0-.4-4.812,9.566,9.566,0,0,0-1.781-3.723,8.27,8.27,0,0,0-3.192-2.4,11.587,11.587,0,0,0-4.651-.851,10.27,10.27,0,0,0-4.6,1,10.554,10.554,0,0,0-3.5,2.78,13.34,13.34,0,0,0-2.288,4.181A18.843,18.843,0,0,0,5.4,16.078a17.323,17.323,0,0,0,.491,5.316A9.6,9.6,0,0,0,7.836,25.2a8.105,8.105,0,0,0,3.291,2.288,12.623,12.623,0,0,0,4.541.759,15.554,15.554,0,0,0,2.98-.32c.491-.1.957-.216,1.4-.346a10.549,10.549,0,0,0,1.207-.432l.623,2.8a6.918,6.918,0,0,1-1.351.668,13,13,0,0,1-1.6.462,15.576,15.576,0,0,1-3.334.374,17.484,17.484,0,0,1-6.078-.979A11.187,11.187,0,0,1,5.09,27.567a12.235,12.235,0,0,1-2.66-4.81,20.519,20.519,0,0,1-.743-6.678A20.366,20.366,0,0,1,2.965,9.67,15.86,15.86,0,0,1,6.043,4.578a14.028,14.028,0,0,1,4.7-3.36A14.7,14.7,0,0,1,16.822,0a15.351,15.351,0,0,1,5.894,1.056A11.463,11.463,0,0,1,26.97,4.024,12.182,12.182,0,0,1,29.494,8.61,17.536,17.536,0,0,1,30.178,14.52ZM13.3,16.446a6.687,6.687,0,0,0,.346,3.316,1.778,1.778,0,0,0,1.71,1.121,1.889,1.889,0,0,0,.586-.108,2.089,2.089,0,0,0,.674-.4,3.6,3.6,0,0,0,.684-.826,6.336,6.336,0,0,0,.629-1.4l.672-7.7a4.017,4.017,0,0,0-1.046-.138,3.616,3.616,0,0,0-1.74.4,3.444,3.444,0,0,0-1.233,1.172,6.88,6.88,0,0,0-.818,1.927,16.342,16.342,0,0,0-.464,2.634Z" transform="translate(-1.67)"/></svg>