<svg xmlns="http://www.w3.org/2000/svg" width="25.556" height="25.556" viewBox="0 0 25.556 25.556"><defs><style>.a{fill:#77cdfd;}</style></defs><path class="a" d="M22.818,2.25H2.738A2.739,2.739,0,0,0,0,4.988v20.08a2.739,2.739,0,0,0,2.738,2.738h20.08a2.739,2.739,0,0,0,2.738-2.738V4.988A2.739,2.739,0,0,0,22.818,2.25Zm-2.789,9.059c.011.16.011.325.011.485A10.572,10.572,0,0,1,9.4,22.438a10.6,10.6,0,0,1-5.744-1.677,7.883,7.883,0,0,0,.9.046,7.5,7.5,0,0,0,4.643-1.6,3.746,3.746,0,0,1-3.5-2.6,4.032,4.032,0,0,0,1.689-.068,3.742,3.742,0,0,1-2.995-3.674v-.046a3.739,3.739,0,0,0,1.689.473,3.733,3.733,0,0,1-1.666-3.115A3.7,3.7,0,0,1,4.923,8.3a10.623,10.623,0,0,0,7.712,3.913,3.749,3.749,0,0,1,6.383-3.417,7.331,7.331,0,0,0,2.373-.9,3.732,3.732,0,0,1-1.643,2.059,7.445,7.445,0,0,0,2.156-.582A7.875,7.875,0,0,1,20.028,11.309Z" transform="translate(0 -2.25)"/></svg>