<svg xmlns="http://www.w3.org/2000/svg" width="29.034" height="19.788" viewBox="0 0 29.034 19.788"><defs><style>.a{fill:#ef921f;}</style></defs><path class="a" d="M3.612,10.356l7.51,7.462a.129.129,0,0,1,0,.191l-5.255,5.46a.868.868,0,0,0,0,1.253.926.926,0,0,0,1.284,0l5.235-5.44a.146.146,0,0,1,.2,0l1.277,1.266A5.69,5.69,0,0,0,17.871,22.2a5.8,5.8,0,0,0,4.09-1.7l1.228-1.219a.146.146,0,0,1,.2,0l5.235,5.44a.926.926,0,0,0,1.284,0,.868.868,0,0,0,0-1.253l-5.255-5.46a.142.142,0,0,1,0-.191l7.517-7.462a.138.138,0,0,1,.237.1V25.382a2.213,2.213,0,0,1-2.233,2.179H5.608a2.213,2.213,0,0,1-2.233-2.179V10.451A.14.14,0,0,1,3.612,10.356Z" transform="translate(-3.375 -7.772)"/><path class="a" d="M17.863,21.292a3.691,3.691,0,0,1-2.721-1.2L4.226,8.388A2.12,2.12,0,0,1,5.6,7.875H30.116a2.106,2.106,0,0,1,1.378.513L20.577,20.09A3.692,3.692,0,0,1,17.863,21.292Z" transform="translate(-3.346 -7.875)"/></svg>