<svg xmlns="http://www.w3.org/2000/svg" width="36.758" height="36.765" viewBox="0 0 36.758 36.765"><defs><style>.a{fill:#fff;}</style></defs><path class="a" d="M24.942,11.829C23.868,5.21,21.333.562,18.383.562S12.9,5.21,11.823,11.829ZM11.267,18.945a46.459,46.459,0,0,0,.245,4.744H25.246a46.46,46.46,0,0,0,.245-4.744,46.46,46.46,0,0,0-.245-4.744H11.511A46.459,46.459,0,0,0,11.267,18.945Zm24.068-7.116a18.421,18.421,0,0,0-11.711-10.5c1.809,2.505,3.054,6.278,3.706,10.5Zm-22.2-10.5a18.409,18.409,0,0,0-11.7,10.5H9.436c.645-4.218,1.89-7.99,3.7-10.5ZM36.128,14.2h-8.5c.156,1.557.245,3.15.245,4.744s-.089,3.187-.245,4.744H36.12a18.224,18.224,0,0,0,.637-4.744A18.542,18.542,0,0,0,36.128,14.2ZM8.895,18.945c0-1.594.089-3.187.245-4.744H.637a17.97,17.97,0,0,0,0,9.488H9.132C8.984,22.132,8.895,20.539,8.895,18.945Zm2.928,7.116c1.075,6.619,3.61,11.267,6.56,11.267s5.485-4.648,6.56-11.267Zm11.808,10.5a18.439,18.439,0,0,0,11.711-10.5H27.337C26.684,30.278,25.439,34.051,23.63,36.557Zm-22.2-10.5a18.421,18.421,0,0,0,11.711,10.5c-1.809-2.505-3.054-6.278-3.706-10.5Z" transform="translate(0 -0.562)"/></svg>