<svg xmlns="http://www.w3.org/2000/svg" width="26" height="28.672" viewBox="0 0 26 28.672"><path d="M27.652,13.233a14.787,14.787,0,0,1-.477,3.207,9.281,9.281,0,0,1-1.247,2.816,6.58,6.58,0,0,1-2.114,2,5.967,5.967,0,0,1-3.087.761,4.475,4.475,0,0,1-2.232-.546,3.823,3.823,0,0,1-1.509-1.546,4.782,4.782,0,0,1-4.046,2.032,4.114,4.114,0,0,1-3.531-1.9,6.217,6.217,0,0,1-.878-2.2,9.489,9.489,0,0,1-.115-2.87,13.333,13.333,0,0,1,.874-3.515,9.555,9.555,0,0,1,1.616-2.693,6.837,6.837,0,0,1,2.222-1.716,6.2,6.2,0,0,1,2.7-.6,8.4,8.4,0,0,1,1.616.138,6.615,6.615,0,0,1,1.254.376,6.782,6.782,0,0,1,1.039.548c.317.2.636.416.953.631l-.785,9.03a3,3,0,0,0,.023,1.057,1.479,1.479,0,0,0,.323.652,1.161,1.161,0,0,0,.523.34,1.942,1.942,0,0,0,1.838-.362,3.918,3.918,0,0,0,.985-1.254,8.077,8.077,0,0,0,.663-1.885,12.932,12.932,0,0,0,.29-2.347A15,15,0,0,0,24.185,9,8.718,8.718,0,0,0,22.562,5.61a7.538,7.538,0,0,0-2.91-2.186,10.561,10.561,0,0,0-4.239-.776,9.36,9.36,0,0,0-4.192.914A9.619,9.619,0,0,0,8.035,6.1,12.158,12.158,0,0,0,5.95,9.906a17.173,17.173,0,0,0-.878,4.748A15.788,15.788,0,0,0,5.52,19.5a8.75,8.75,0,0,0,1.77,3.472,7.387,7.387,0,0,0,3,2.085,11.5,11.5,0,0,0,4.139.692,14.176,14.176,0,0,0,2.716-.292c.448-.09.873-.2,1.277-.315a9.615,9.615,0,0,0,1.1-.394L20.09,27.3a6.3,6.3,0,0,1-1.231.609,11.848,11.848,0,0,1-1.455.421,14.2,14.2,0,0,1-3.039.34,15.935,15.935,0,0,1-5.54-.892,10.2,10.2,0,0,1-4.038-2.655A11.151,11.151,0,0,1,2.363,20.74a18.7,18.7,0,0,1-.677-6.086A18.562,18.562,0,0,1,2.85,8.813a14.455,14.455,0,0,1,2.806-4.64,12.785,12.785,0,0,1,4.28-3.062A13.4,13.4,0,0,1,15.48,0a13.991,13.991,0,0,1,5.371.962,10.447,10.447,0,0,1,3.877,2.705,11.1,11.1,0,0,1,2.3,4.18A15.983,15.983,0,0,1,27.652,13.233ZM12.265,14.989a6.1,6.1,0,0,0,.315,3.023,1.621,1.621,0,0,0,1.559,1.021,1.722,1.722,0,0,0,.534-.1,1.9,1.9,0,0,0,.615-.369,3.28,3.28,0,0,0,.623-.752,5.775,5.775,0,0,0,.573-1.272L17.1,9.524a3.661,3.661,0,0,0-.953-.125,3.3,3.3,0,0,0-1.586.364,3.139,3.139,0,0,0-1.123,1.068,6.271,6.271,0,0,0-.745,1.756,14.894,14.894,0,0,0-.423,2.4Z" transform="translate(-1.67)"/></svg>