<svg xmlns="http://www.w3.org/2000/svg" width="26.491" height="29.784" viewBox="0 0 26.491 29.784"><defs><style>.a{fill:#343433;}</style></defs><path class="a" d="M29.528,4.5H5.963A1.562,1.562,0,0,0,4.5,6.144v26.5a1.562,1.562,0,0,0,1.463,1.644H17.746V22.495H14.579V18.151h3.167V14.94C17.746,11.093,20.119,9,23.175,9a32.641,32.641,0,0,1,3.4.178v4.018H24.141c-1.663,0-1.98.884-1.98,2.187v2.769h3.96L25.6,22.495H22.161v11.79h7.368a1.562,1.562,0,0,0,1.463-1.644V6.144A1.562,1.562,0,0,0,29.528,4.5Z" transform="translate(-4.5 -4.5)"/></svg>