<svg xmlns="http://www.w3.org/2000/svg" width="28.141" height="28.146" viewBox="0 0 28.141 28.146"><defs><style>.a{fill:#343433;}</style></defs><path class="a" d="M19.1,9.188C18.272,4.121,16.332.562,14.073.562s-4.2,3.558-5.022,8.626ZM8.626,14.636a35.568,35.568,0,0,0,.187,3.632H19.328a35.569,35.569,0,0,0,.187-3.632A35.569,35.569,0,0,0,19.328,11H8.813A35.568,35.568,0,0,0,8.626,14.636ZM27.051,9.188a14.1,14.1,0,0,0-8.966-8.035,19.153,19.153,0,0,1,2.837,8.035Zm-17-8.035A14.093,14.093,0,0,0,1.1,9.188H7.224a19.075,19.075,0,0,1,2.832-8.035ZM27.658,11H21.15c.119,1.192.187,2.412.187,3.632s-.068,2.44-.187,3.632h6.5a13.952,13.952,0,0,0,.488-3.632A14.2,14.2,0,0,0,27.658,11ZM6.81,14.636c0-1.22.068-2.44.187-3.632H.488a13.758,13.758,0,0,0,0,7.264h6.5C6.878,17.076,6.81,15.856,6.81,14.636Zm2.241,5.448c.823,5.067,2.764,8.626,5.022,8.626s4.2-3.558,5.022-8.626Zm9.04,8.035a14.116,14.116,0,0,0,8.966-8.035H20.928A19.152,19.152,0,0,1,18.091,28.119Zm-17-8.035a14.1,14.1,0,0,0,8.966,8.035,19.153,19.153,0,0,1-2.837-8.035Z" transform="translate(0 -0.563)"/></svg>