<svg xmlns="http://www.w3.org/2000/svg" width="29.286" height="30.913" viewBox="0 0 29.286 30.913"><path d="M25.951,19.785V10.022L21.07,5.141l-4.881,4.881v3.254H6.427V36.055H35.713V19.785H25.951ZM12.935,32.8H9.681V29.547h3.254Zm0-6.508H9.681V23.039h3.254Zm0-6.508H9.681V16.531h3.254ZM22.7,32.8H19.443V29.547H22.7Zm0-6.508H19.443V23.039H22.7Zm0-6.508H19.443V16.531H22.7Zm0-6.508H19.443V10.023H22.7ZM32.459,32.8H29.205V29.547h3.254Zm0-6.508H29.205V23.039h3.254Z" transform="translate(-6.427 -5.141)"/></svg>