<svg xmlns="http://www.w3.org/2000/svg" xmlns:xlink="http://www.w3.org/1999/xlink" width="70" height="70" viewBox="0 0 70 70"><defs><style>.a{fill:#f7941e;}.b{fill:#fff;}.c{filter:url(#a);}</style><filter id="a" x="0" y="0" width="70" height="70" filterUnits="userSpaceOnUse"><feOffset dy="3" input="SourceAlpha"/><feGaussianBlur stdDeviation="3" result="b"/><feFlood flood-opacity="0.161"/><feComposite operator="in" in2="b"/><feComposite in="SourceGraphic"/></filter></defs><g transform="translate(-667 -410)"><g class="c" transform="matrix(1, 0, 0, 1, 667, 410)"><circle class="a" cx="26" cy="26" r="26" transform="translate(9 6)"/></g><path class="b" d="M17.905,3A10.4,10.4,0,0,0,7.5,13.405c0,7.8,10.405,19.324,10.405,19.324S28.31,21.209,28.31,13.405A10.4,10.4,0,0,0,17.905,3Zm0,14.121a3.716,3.716,0,1,1,3.716-3.716A3.717,3.717,0,0,1,17.905,17.121Z" transform="translate(683.69 424.131)"/></g></svg>