<svg xmlns="http://www.w3.org/2000/svg" width="204" height="172" viewBox="0 0 204 172"><defs><style>.a{fill:#fff;}.b{fill:none;}.c,.d,.e{stroke:none;}.d{fill:#fff;}.e{fill:#b8975b;}</style></defs><g transform="translate(0.416 -0.5)"><path class="a" d="M117,0l39,67.5L117,135H39L0,67.5,39,0Z" transform="translate(13.584 0.5)"/><g class="b" transform="translate(47.584 20.5)"><path class="c" d="M117,0l39,67.5L117,135H39L0,67.5,39,0Z"/><path class="d" d="M 44.19423675537109 9 L 10.39424133300781 67.5 L 44.19423675537109 126 L 111.8057632446289 126 L 145.6057586669922 67.5 L 111.8057632446289 9 L 44.19423675537109 9 M 39 0 L 117 0 L 156 67.5 L 117 135 L 39 135 L 0 67.5 L 39 0 Z"/></g><g class="b" transform="translate(-0.416 36.5)"><path class="c" d="M117,0l39,68-39,68H39L0,68,39,0Z"/><path class="e" d="M 44.21340179443359 9 L 10.37516784667969 68 L 44.21340179443359 127 L 111.7866058349609 127 L 145.6248321533203 68 L 111.7866058349609 9 L 44.21340179443359 9 M 39 0 L 117 0 L 156 68 L 117 136 L 39 136 L 0 68 L 39 0 Z"/></g></g></svg>