<svg xmlns="http://www.w3.org/2000/svg" width="28.593" height="28.593" viewBox="0 0 28.593 28.593"><defs><style>.a{fill:#fff;}</style></defs><path class="a" d="M27.777,20.205l-6.255-2.681a1.34,1.34,0,0,0-1.564.385l-2.77,3.384a20.7,20.7,0,0,1-9.9-9.9l3.384-2.77a1.337,1.337,0,0,0,.385-1.564L8.382.81A1.349,1.349,0,0,0,6.847.034L1.039,1.374A1.34,1.34,0,0,0,0,2.681,25.91,25.91,0,0,0,25.912,28.593a1.34,1.34,0,0,0,1.307-1.039l1.34-5.808A1.356,1.356,0,0,0,27.777,20.205Z" transform="translate(0 0)"/></svg>