<svg xmlns="http://www.w3.org/2000/svg" width="25.436" height="28.05" viewBox="0 0 25.436 28.05"><defs><style>.a{fill:#fff;}</style></defs><path class="a" d="M27.089,12.946a14.466,14.466,0,0,1-.466,3.138,9.08,9.08,0,0,1-1.22,2.755A6.438,6.438,0,0,1,23.334,20.8a5.837,5.837,0,0,1-3.02.745,4.378,4.378,0,0,1-2.184-.535,3.74,3.74,0,0,1-1.476-1.513A4.678,4.678,0,0,1,12.7,21.482a4.024,4.024,0,0,1-3.455-1.858,6.082,6.082,0,0,1-.859-2.152,9.283,9.283,0,0,1-.112-2.808,13.044,13.044,0,0,1,.855-3.439A9.348,9.348,0,0,1,10.707,8.59,6.688,6.688,0,0,1,12.88,6.911a6.065,6.065,0,0,1,2.643-.587,8.219,8.219,0,0,1,1.581.135,6.472,6.472,0,0,1,1.227.368,6.635,6.635,0,0,1,1.017.536c.31.2.622.407.932.617l-.768,8.834a2.936,2.936,0,0,0,.023,1.034,1.447,1.447,0,0,0,.316.638,1.136,1.136,0,0,0,.512.333,1.9,1.9,0,0,0,1.8-.354,3.833,3.833,0,0,0,.964-1.227,7.9,7.9,0,0,0,.649-1.844,12.652,12.652,0,0,0,.284-2.3A14.674,14.674,0,0,0,23.7,8.808a8.529,8.529,0,0,0-1.588-3.32A7.374,7.374,0,0,0,19.262,3.35a10.332,10.332,0,0,0-4.147-.759,9.157,9.157,0,0,0-4.1.894A9.411,9.411,0,0,0,7.9,5.963a11.9,11.9,0,0,0-2.04,3.728A16.8,16.8,0,0,0,5,14.336a15.446,15.446,0,0,0,.438,4.74,8.56,8.56,0,0,0,1.732,3.4,7.227,7.227,0,0,0,2.934,2.04,11.255,11.255,0,0,0,4.049.677,13.868,13.868,0,0,0,2.657-.286c.438-.088.854-.193,1.25-.308a9.4,9.4,0,0,0,1.076-.386l.556,2.5a6.168,6.168,0,0,1-1.2.6,11.592,11.592,0,0,1-1.423.412,13.888,13.888,0,0,1-2.973.333,15.59,15.59,0,0,1-5.42-.873,9.975,9.975,0,0,1-3.951-2.6A10.91,10.91,0,0,1,2.348,20.29a18.3,18.3,0,0,1-.663-5.954A18.159,18.159,0,0,1,2.825,8.622,14.142,14.142,0,0,1,5.57,4.082a12.508,12.508,0,0,1,4.187-3A13.11,13.11,0,0,1,15.18,0a13.687,13.687,0,0,1,5.255.941,10.221,10.221,0,0,1,3.793,2.647,10.862,10.862,0,0,1,2.251,4.089A15.636,15.636,0,0,1,27.089,12.946ZM12.036,14.664a5.963,5.963,0,0,0,.308,2.957,1.585,1.585,0,0,0,1.525,1,1.684,1.684,0,0,0,.522-.1,1.863,1.863,0,0,0,.6-.361,3.209,3.209,0,0,0,.61-.736,5.65,5.65,0,0,0,.561-1.244l.6-6.864A3.581,3.581,0,0,0,15.83,9.2a3.224,3.224,0,0,0-1.551.356,3.071,3.071,0,0,0-1.1,1.045,6.135,6.135,0,0,0-.729,1.718,14.571,14.571,0,0,0-.414,2.349Z" transform="translate(-1.67)"/></svg>