<svg xmlns="http://www.w3.org/2000/svg" width="36.385" height="260.795" viewBox="0 0 36.385 260.795"><defs><style>.a{fill:#c2986b;}</style></defs><g transform="translate(0 260.795) rotate(-90)"><path class="a" d="M34.9,4.5H6.276A1.9,1.9,0,0,0,4.5,6.5V38.679a1.9,1.9,0,0,0,1.776,2H20.588V26.356H16.742V21.081h3.846v-3.9c0-4.673,2.882-7.216,6.594-7.216a39.645,39.645,0,0,1,4.131.217v4.88H28.355c-2.019,0-2.4,1.074-2.4,2.657v3.363h4.81l-.628,5.276H25.951v14.32H34.9a1.9,1.9,0,0,0,1.776-2V6.5A1.9,1.9,0,0,0,34.9,4.5Z" transform="translate(-4.5 -4.291)"/><path class="a" d="M32.486,2.25H3.9A3.9,3.9,0,0,0,0,6.148V34.736a3.9,3.9,0,0,0,3.9,3.9H32.486a3.9,3.9,0,0,0,3.9-3.9V6.148A3.9,3.9,0,0,0,32.486,2.25Zm-3.971,12.9c.016.227.016.463.016.69A15.052,15.052,0,0,1,13.376,30.992,15.085,15.085,0,0,1,5.2,28.6a11.222,11.222,0,0,0,1.283.065A10.679,10.679,0,0,0,13.092,26.4a5.334,5.334,0,0,1-4.979-3.7,5.741,5.741,0,0,0,2.4-.1,5.327,5.327,0,0,1-4.264-5.23v-.065a5.323,5.323,0,0,0,2.4.674,5.315,5.315,0,0,1-2.372-4.434,5.26,5.26,0,0,1,.723-2.688,15.124,15.124,0,0,0,10.98,5.571,5.338,5.338,0,0,1,9.088-4.865,10.438,10.438,0,0,0,3.379-1.283,5.313,5.313,0,0,1-2.339,2.932,10.6,10.6,0,0,0,3.07-.828A11.212,11.212,0,0,1,28.515,15.147Z" transform="translate(72.238 -2.25)"/><path class="a" d="M32,2.25H2.454A2.472,2.472,0,0,0,0,4.734V34.223a2.472,2.472,0,0,0,2.454,2.484H32a2.478,2.478,0,0,0,2.461-2.484V4.734A2.478,2.478,0,0,0,32,2.25ZM10.414,31.785H5.307V15.341h5.115V31.785ZM7.861,13.095a2.961,2.961,0,1,1,2.961-2.961,2.962,2.962,0,0,1-2.961,2.961Zm21.7,18.69H24.451v-8c0-1.907-.038-4.361-2.654-4.361-2.661,0-3.069,2.077-3.069,4.223v8.138H13.622V15.341h4.9v2.246h.069a5.379,5.379,0,0,1,4.838-2.654c5.169,0,6.13,3.407,6.13,7.838Z" transform="translate(151.72 -2.25)"/><path class="a" d="M23.193,11.039c-1-6.155-3.357-10.477-6.1-10.477s-5.1,4.322-6.1,10.477ZM10.477,17.656a43.2,43.2,0,0,0,.227,4.411H23.476a43.2,43.2,0,0,0,.227-4.411,43.2,43.2,0,0,0-.227-4.411H10.7A43.2,43.2,0,0,0,10.477,17.656Zm22.38-6.617a17.129,17.129,0,0,0-10.89-9.76c1.682,2.33,2.84,5.838,3.446,9.76ZM12.213,1.279A17.118,17.118,0,0,0,1.33,11.039H8.774a23.168,23.168,0,0,1,3.439-9.76Zm21.38,11.965H25.688c.145,1.447.227,2.929.227,4.411s-.083,2.964-.227,4.411h7.9a16.946,16.946,0,0,0,.593-4.411A17.242,17.242,0,0,0,33.594,13.245ZM8.271,17.656c0-1.482.083-2.964.227-4.411H.593a16.71,16.71,0,0,0,0,8.822h7.9C8.354,20.619,8.271,19.138,8.271,17.656Zm2.723,6.617c1,6.155,3.357,10.476,6.1,10.476s5.1-4.322,6.1-10.476Zm10.98,9.76a17.146,17.146,0,0,0,10.89-9.76H25.419c-.607,3.922-1.764,7.43-3.446,9.76ZM1.33,24.272a17.129,17.129,0,0,0,10.89,9.76c-1.682-2.33-2.84-5.838-3.446-9.76H1.33Z" transform="translate(226.616 -0.291)"/></g></svg>