<svg xmlns="http://www.w3.org/2000/svg" width="162.795" height="22.712" viewBox="0 0 162.795 22.712"><defs><style>.a{fill:#ed1c24;}</style></defs><g transform="translate(-575 -483.791)"><path class="a" d="M23.476,4.5H5.609A1.184,1.184,0,0,0,4.5,5.747V25.835a1.184,1.184,0,0,0,1.109,1.247h8.934V18.143h-2.4V14.85h2.4V12.415c0-2.917,1.8-4.5,4.116-4.5a24.748,24.748,0,0,1,2.579.135v3.046H19.391c-1.261,0-1.5.67-1.5,1.658v2.1h3L20.5,18.143H17.89v8.939h5.586a1.184,1.184,0,0,0,1.109-1.247V5.747A1.184,1.184,0,0,0,23.476,4.5Z" transform="translate(570.5 479.422)"/><path class="a" d="M20.279,2.25H2.433A2.434,2.434,0,0,0,0,4.683V22.529a2.434,2.434,0,0,0,2.433,2.433H20.279a2.434,2.434,0,0,0,2.433-2.433V4.683A2.434,2.434,0,0,0,20.279,2.25ZM17.8,10.3c.01.142.01.289.01.431a9.4,9.4,0,0,1-9.46,9.46A9.416,9.416,0,0,1,3.245,18.7a7.005,7.005,0,0,0,.8.041,6.666,6.666,0,0,0,4.127-1.42,3.329,3.329,0,0,1-3.108-2.307,3.584,3.584,0,0,0,1.5-.061A3.325,3.325,0,0,1,3.9,11.69v-.041a3.323,3.323,0,0,0,1.5.421A3.318,3.318,0,0,1,3.924,9.3a3.283,3.283,0,0,1,.451-1.678A9.441,9.441,0,0,0,11.229,11.1,3.332,3.332,0,0,1,16.9,8.065a6.515,6.515,0,0,0,2.109-.8,3.316,3.316,0,0,1-1.46,1.83,6.617,6.617,0,0,0,1.916-.517A7,7,0,0,1,17.8,10.3Z" transform="translate(620.093 481.541)"/><path class="a" d="M19.973,2.25H1.532A1.543,1.543,0,0,0,0,3.8V22.209a1.543,1.543,0,0,0,1.532,1.551H19.973a1.547,1.547,0,0,0,1.536-1.551V3.8A1.547,1.547,0,0,0,19.973,2.25ZM6.5,20.687H3.313V10.422H6.506V20.687ZM4.907,9.02A1.848,1.848,0,1,1,6.755,7.171,1.849,1.849,0,0,1,4.907,9.02ZM18.451,20.687H15.263V15.693c0-1.191-.024-2.722-1.656-2.722-1.661,0-1.916,1.3-1.916,2.636v5.08H8.5V10.422h3.058v1.4H11.6a3.358,3.358,0,0,1,3.02-1.656c3.226,0,3.827,2.127,3.827,4.892Z" transform="translate(669.708 481.541)"/><path class="a" d="M14.478,7.1c-.624-3.842-2.1-6.54-3.808-6.54S7.486,3.26,6.862,7.1ZM6.54,11.233a26.967,26.967,0,0,0,.142,2.754h7.972a26.967,26.967,0,0,0,.142-2.754,26.967,26.967,0,0,0-.142-2.754H6.682A26.967,26.967,0,0,0,6.54,11.233ZM20.51,7.1a10.693,10.693,0,0,0-6.8-6.092A14.521,14.521,0,0,1,15.863,7.1ZM7.624,1.01A10.685,10.685,0,0,0,.83,7.1H5.477A14.462,14.462,0,0,1,7.624,1.01ZM20.97,8.479H16.035c.09.9.142,1.829.142,2.754s-.052,1.85-.142,2.754h4.931a10.578,10.578,0,0,0,.37-2.754A10.763,10.763,0,0,0,20.97,8.479ZM5.163,11.233c0-.925.052-1.85.142-2.754H.37a10.431,10.431,0,0,0,0,5.507H5.3C5.215,13.083,5.163,12.158,5.163,11.233Zm1.7,4.13c.624,3.842,2.1,6.54,3.808,6.54s3.184-2.7,3.808-6.54Zm6.854,6.092a10.7,10.7,0,0,0,6.8-6.092H15.867a14.521,14.521,0,0,1-2.151,6.092ZM.83,15.363a10.693,10.693,0,0,0,6.8,6.092,14.521,14.521,0,0,1-2.151-6.092H.83Z" transform="translate(716.46 483.398)"/></g></svg>