<svg xmlns="http://www.w3.org/2000/svg" width="29.087" height="29.087" viewBox="0 0 29.087 29.087"><defs><style>.a{fill:#231f20;}</style></defs><path class="a" d="M28.257,20.554l-6.363-2.727a1.363,1.363,0,0,0-1.591.392l-2.818,3.443A21.058,21.058,0,0,1,7.42,11.6l3.443-2.818a1.36,1.36,0,0,0,.392-1.591L8.527.824A1.373,1.373,0,0,0,6.965.035L1.057,1.4A1.363,1.363,0,0,0,0,2.727a26.357,26.357,0,0,0,26.36,26.36,1.363,1.363,0,0,0,1.329-1.057l1.363-5.908a1.38,1.38,0,0,0-.8-1.568Z" transform="translate(0 0)"/></svg>