<svg xmlns="http://www.w3.org/2000/svg" width="26.381" height="29.093" viewBox="0 0 26.381 29.093"><defs><style>.a{fill:#231f20;}</style></defs><path class="a" d="M28.033,13.427a15,15,0,0,1-.484,3.254,9.417,9.417,0,0,1-1.265,2.858,6.677,6.677,0,0,1-2.145,2.031,6.054,6.054,0,0,1-3.132.773,4.541,4.541,0,0,1-2.265-.554,3.879,3.879,0,0,1-1.531-1.569,4.852,4.852,0,0,1-4.1,2.062,4.174,4.174,0,0,1-3.583-1.927,6.308,6.308,0,0,1-.891-2.232,9.628,9.628,0,0,1-.116-2.912A13.529,13.529,0,0,1,9.4,11.642a9.7,9.7,0,0,1,1.64-2.732A6.937,6.937,0,0,1,13.3,7.168a6.29,6.29,0,0,1,2.741-.609,8.525,8.525,0,0,1,1.64.14,6.712,6.712,0,0,1,1.273.382,6.881,6.881,0,0,1,1.054.556c.322.207.645.422.967.64l-.8,9.162a3.046,3.046,0,0,0,.024,1.073,1.5,1.5,0,0,0,.327.662,1.178,1.178,0,0,0,.531.345,1.971,1.971,0,0,0,1.865-.367,3.975,3.975,0,0,0,1-1.273,8.2,8.2,0,0,0,.673-1.912,13.122,13.122,0,0,0,.295-2.382,15.22,15.22,0,0,0-.374-4.45,8.846,8.846,0,0,0-1.647-3.443,7.648,7.648,0,0,0-2.952-2.218,10.716,10.716,0,0,0-4.3-.787,9.5,9.5,0,0,0-4.254.927A9.761,9.761,0,0,0,8.129,6.185a12.337,12.337,0,0,0-2.116,3.867,17.425,17.425,0,0,0-.891,4.818,16.02,16.02,0,0,0,.454,4.916,8.878,8.878,0,0,0,1.8,3.523,7.5,7.5,0,0,0,3.043,2.116,11.673,11.673,0,0,0,4.2.7,14.384,14.384,0,0,0,2.756-.3c.454-.091.885-.2,1.3-.32a9.756,9.756,0,0,0,1.116-.4L20.36,27.7a6.4,6.4,0,0,1-1.249.618,12.022,12.022,0,0,1-1.476.427,14.4,14.4,0,0,1-3.083.345,16.169,16.169,0,0,1-5.621-.905,10.346,10.346,0,0,1-4.1-2.694,11.315,11.315,0,0,1-2.46-4.449,18.975,18.975,0,0,1-.687-6.176A18.834,18.834,0,0,1,2.868,8.942,14.667,14.667,0,0,1,5.714,4.234a12.973,12.973,0,0,1,4.343-3.107A13.6,13.6,0,0,1,15.682,0a14.2,14.2,0,0,1,5.45.976,10.6,10.6,0,0,1,3.934,2.745A11.266,11.266,0,0,1,27.4,7.963,16.217,16.217,0,0,1,28.033,13.427ZM12.421,15.209a6.184,6.184,0,0,0,.32,3.067,1.644,1.644,0,0,0,1.582,1.036,1.747,1.747,0,0,0,.542-.1,1.932,1.932,0,0,0,.624-.374,3.328,3.328,0,0,0,.633-.764,5.86,5.86,0,0,0,.582-1.291l.622-7.119a3.715,3.715,0,0,0-.967-.127,3.344,3.344,0,0,0-1.609.369,3.185,3.185,0,0,0-1.14,1.083,6.363,6.363,0,0,0-.756,1.782,15.113,15.113,0,0,0-.429,2.436Z" transform="translate(-1.67)"/></svg>