<svg xmlns="http://www.w3.org/2000/svg" width="17.57" height="18.855" viewBox="0 0 17.57 18.855"><defs><style>.a{fill:#e12c37;}</style></defs><path class="a" d="M16.214,11.931V5.977L13.285,3,10.357,5.977V7.962H4.5V21.855H22.07V11.931ZM8.4,19.87H6.452V17.885H8.4Zm0-3.969H6.452V13.916H8.4Zm0-3.969H6.452V9.946H8.4Zm5.857,7.939H12.309V17.885h1.952Zm0-3.969H12.309V13.916h1.952Zm0-3.969H12.309V9.946h1.952Zm0-3.969H12.309V5.977h1.952ZM20.118,19.87H18.166V17.885h1.952Zm0-3.969H18.166V13.916h1.952Z" transform="translate(-4.5 -3)"/></svg>