<svg xmlns="http://www.w3.org/2000/svg" width="21.276" height="15.548" viewBox="0 0 21.276 15.548"><defs><style>.a{fill:#e12c37;}</style></defs><g transform="translate(-3.375 -7.313)"><path class="a" d="M30.785,9.767A2.455,2.455,0,1,1,28.33,7.313,2.455,2.455,0,0,1,30.785,9.767Z" transform="translate(-6.134)"/><g transform="translate(3.375 8.131)"><path class="a" d="M22.2,14.14a3.408,3.408,0,0,1-.8-.1l-2.424,2.47a.1.1,0,0,0,0,.143l3.851,4.1a.664.664,0,0,1,0,.941.667.667,0,0,1-.941,0l-3.836-4.086a.1.1,0,0,0-.148,0l-.936.951A4.118,4.118,0,0,1,14.028,19.8a4.2,4.2,0,0,1-3-1.273l-.9-.915a.1.1,0,0,0-.148,0L6.147,21.7a.667.667,0,0,1-.941,0,.664.664,0,0,1,0-.941l3.851-4.1a.109.109,0,0,0,0-.143L3.549,10.908a.1.1,0,0,0-.174.072V22.2a1.641,1.641,0,0,0,1.637,1.637h18A1.641,1.641,0,0,0,24.651,22.2v-9.1A3.393,3.393,0,0,1,22.2,14.14Z" transform="translate(-3.375 -9.102)"/><path class="a" d="M19.027,10.074a3.4,3.4,0,0,1,.419-1.637H5.238A1.6,1.6,0,0,0,4.226,8.8l8.024,8.168a2.8,2.8,0,0,0,4,0l4.117-4.189A3.384,3.384,0,0,1,19.027,10.074Z" transform="translate(-3.607 -8.438)"/></g></g></svg>