<svg xmlns="http://www.w3.org/2000/svg" width="19.983" height="14.603" viewBox="0 0 19.983 14.603"><g transform="translate(-3.375 -7.313)"><path d="M30.487,9.618a2.306,2.306,0,1,1-2.306-2.306A2.306,2.306,0,0,1,30.487,9.618Z" transform="translate(-7.128)"/><g transform="translate(3.375 8.081)"><path d="M21.052,13.942a3.2,3.2,0,0,1-.749-.091l-2.277,2.32a.093.093,0,0,0,0,.135l3.617,3.853a.623.623,0,0,1,0,.884.626.626,0,0,1-.884,0l-3.6-3.838a.1.1,0,0,0-.139,0l-.879.893a3.868,3.868,0,0,1-2.757,1.162,3.945,3.945,0,0,1-2.815-1.2l-.845-.86a.1.1,0,0,0-.139,0l-3.6,3.838a.626.626,0,0,1-.884,0,.623.623,0,0,1,0-.884l3.617-3.853a.1.1,0,0,0,0-.135L3.538,10.906a.1.1,0,0,0-.163.067V21.508a1.542,1.542,0,0,0,1.537,1.537H21.821a1.542,1.542,0,0,0,1.537-1.537V12.957A3.187,3.187,0,0,1,21.052,13.942Z" transform="translate(-3.375 -9.21)"/><path d="M18.128,9.975a3.193,3.193,0,0,1,.394-1.537H5.177a1.5,1.5,0,0,0-.951.336l7.537,7.671a2.633,2.633,0,0,0,3.756,0l3.867-3.934A3.178,3.178,0,0,1,18.128,9.975Z" transform="translate(-3.645 -8.438)"/></g></g></svg>