<svg xmlns="http://www.w3.org/2000/svg" width="24.898" height="24.903" viewBox="0 0 24.898 24.903"><defs><style>.a{fill:#fff;}</style></defs><path class="a" d="M16.9,8.194C16.167,3.711,14.45.562,12.452.562S8.736,3.711,8.008,8.194Zm-9.263,4.82A31.47,31.47,0,0,0,7.8,16.228h9.3a31.47,31.47,0,0,0,.166-3.213A31.47,31.47,0,0,0,17.1,9.8H7.8A31.47,31.47,0,0,0,7.632,13.014Zm16.3-4.82A12.478,12.478,0,0,0,16,1.085a16.946,16.946,0,0,1,2.51,7.11ZM8.9,1.085A12.47,12.47,0,0,0,.969,8.194H6.392A16.877,16.877,0,0,1,8.9,1.085ZM24.472,9.8H18.713c.105,1.054.166,2.134.166,3.213s-.06,2.159-.166,3.213h5.754a12.344,12.344,0,0,0,.432-3.213A12.56,12.56,0,0,0,24.472,9.8ZM6.025,13.014c0-1.079.06-2.159.166-3.213H.432a12.172,12.172,0,0,0,0,6.427H6.186C6.085,15.173,6.025,14.094,6.025,13.014Zm1.983,4.82c.728,4.484,2.445,7.632,4.443,7.632s3.715-3.148,4.443-7.632Zm8,7.109a12.49,12.49,0,0,0,7.933-7.109H18.517a16.946,16.946,0,0,1-2.51,7.109ZM.969,17.834A12.478,12.478,0,0,0,8.9,24.944a16.946,16.946,0,0,1-2.51-7.109H.969Z" transform="translate(0 -0.563)"/></svg>