<svg xmlns="http://www.w3.org/2000/svg" width="22.712" height="22.712" viewBox="0 0 22.712 22.712"><defs><style>.a{fill:#fff;}</style></defs><path class="a" d="M20.279,2.25H2.433A2.434,2.434,0,0,0,0,4.683V22.529a2.434,2.434,0,0,0,2.433,2.433H20.279a2.434,2.434,0,0,0,2.433-2.433V4.683A2.434,2.434,0,0,0,20.279,2.25ZM17.8,10.3c.01.142.01.289.01.431a9.4,9.4,0,0,1-9.46,9.46A9.416,9.416,0,0,1,3.245,18.7a7.005,7.005,0,0,0,.8.041,6.666,6.666,0,0,0,4.127-1.42,3.329,3.329,0,0,1-3.108-2.307,3.584,3.584,0,0,0,1.5-.061A3.325,3.325,0,0,1,3.9,11.69v-.041a3.323,3.323,0,0,0,1.5.421A3.318,3.318,0,0,1,3.924,9.3a3.283,3.283,0,0,1,.451-1.678A9.441,9.441,0,0,0,11.229,11.1,3.332,3.332,0,0,1,16.9,8.065a6.515,6.515,0,0,0,2.109-.8,3.316,3.316,0,0,1-1.46,1.83,6.617,6.617,0,0,0,1.916-.517A7,7,0,0,1,17.8,10.3Z" transform="translate(0 -2.25)"/></svg>