<svg xmlns="http://www.w3.org/2000/svg" width="19.218" height="21.193" viewBox="0 0 19.218 21.193"><defs><style>.a{fill:#fff;}</style></defs><path class="a" d="M20.875,9.781a10.93,10.93,0,0,1-.352,2.371,6.86,6.86,0,0,1-.922,2.082,4.864,4.864,0,0,1-1.563,1.479,4.41,4.41,0,0,1-2.282.563,3.308,3.308,0,0,1-1.65-.4,2.826,2.826,0,0,1-1.115-1.143,3.534,3.534,0,0,1-2.99,1.5,3.041,3.041,0,0,1-2.61-1.4A4.6,4.6,0,0,1,6.742,13.2a7.014,7.014,0,0,1-.085-2.122,9.855,9.855,0,0,1,.646-2.6A7.062,7.062,0,0,1,8.5,6.49,5.053,5.053,0,0,1,10.14,5.222a4.582,4.582,0,0,1,2-.444,6.21,6.21,0,0,1,1.195.1,4.889,4.889,0,0,1,.927.278,5.013,5.013,0,0,1,.768.405c.234.151.47.307.7.466l-.58,6.675a2.219,2.219,0,0,0,.017.781,1.093,1.093,0,0,0,.238.482.858.858,0,0,0,.387.252,1.436,1.436,0,0,0,1.359-.268,2.9,2.9,0,0,0,.728-.927,5.971,5.971,0,0,0,.49-1.393A9.559,9.559,0,0,0,18.585,9.9a11.087,11.087,0,0,0-.273-3.242,6.444,6.444,0,0,0-1.2-2.508,5.571,5.571,0,0,0-2.151-1.616,7.806,7.806,0,0,0-3.133-.573,6.918,6.918,0,0,0-3.1.675A7.11,7.11,0,0,0,6.375,4.505,8.987,8.987,0,0,0,4.833,7.322a12.694,12.694,0,0,0-.649,3.509,11.67,11.67,0,0,0,.331,3.581,6.468,6.468,0,0,0,1.308,2.567,5.46,5.46,0,0,0,2.217,1.542,8.5,8.5,0,0,0,3.059.511,10.478,10.478,0,0,0,2.008-.216c.331-.066.645-.146.944-.233a7.106,7.106,0,0,0,.813-.291l.42,1.888a4.66,4.66,0,0,1-.91.45,8.758,8.758,0,0,1-1.075.311,10.493,10.493,0,0,1-2.246.252,11.779,11.779,0,0,1-4.095-.66,7.536,7.536,0,0,1-2.985-1.963A8.243,8.243,0,0,1,2.182,15.33a13.823,13.823,0,0,1-.5-4.5,13.72,13.72,0,0,1,.861-4.317,10.685,10.685,0,0,1,2.074-3.43A9.45,9.45,0,0,1,7.78.821,9.9,9.9,0,0,1,11.877,0a10.341,10.341,0,0,1,3.97.711,7.722,7.722,0,0,1,2.866,2,8.207,8.207,0,0,1,1.7,3.09A11.814,11.814,0,0,1,20.875,9.781ZM9.5,11.079a4.505,4.505,0,0,0,.233,2.234,1.2,1.2,0,0,0,1.152.755A1.273,1.273,0,0,0,11.282,14a1.407,1.407,0,0,0,.454-.273,2.424,2.424,0,0,0,.461-.556,4.269,4.269,0,0,0,.424-.94l.453-5.186a2.706,2.706,0,0,0-.7-.093,2.436,2.436,0,0,0-1.172.269,2.32,2.32,0,0,0-.83.789,4.635,4.635,0,0,0-.551,1.3A11.009,11.009,0,0,0,9.5,11.078Z" transform="translate(-1.67)"/></svg>