<svg xmlns="http://www.w3.org/2000/svg" width="19.808" height="21.843" viewBox="0 0 19.808 21.843"><path d="M21.464,10.082a11.265,11.265,0,0,1-.363,2.443,7.07,7.07,0,0,1-.95,2.146A5.013,5.013,0,0,1,18.541,16.2a4.546,4.546,0,0,1-2.352.58,3.409,3.409,0,0,1-1.7-.416,2.913,2.913,0,0,1-1.149-1.178,3.643,3.643,0,0,1-3.082,1.548,3.134,3.134,0,0,1-2.69-1.447A4.736,4.736,0,0,1,6.9,13.606a7.229,7.229,0,0,1-.087-2.187,10.158,10.158,0,0,1,.666-2.678A7.279,7.279,0,0,1,8.707,6.69,5.208,5.208,0,0,1,10.4,5.382a4.723,4.723,0,0,1,2.058-.457,6.4,6.4,0,0,1,1.231.105,5.04,5.04,0,0,1,.955.287,5.167,5.167,0,0,1,.792.418c.242.156.485.317.726.48l-.6,6.879a2.287,2.287,0,0,0,.018.805,1.127,1.127,0,0,0,.246.5.884.884,0,0,0,.4.259,1.48,1.48,0,0,0,1.4-.276,2.985,2.985,0,0,0,.751-.955,6.154,6.154,0,0,0,.505-1.436A9.852,9.852,0,0,0,19.1,10.2a11.427,11.427,0,0,0-.281-3.341,6.642,6.642,0,0,0-1.237-2.585A5.742,5.742,0,0,0,15.37,2.608a8.046,8.046,0,0,0-3.23-.591,7.131,7.131,0,0,0-3.194.7,7.328,7.328,0,0,0-2.427,1.93,9.263,9.263,0,0,0-1.589,2.9,13.083,13.083,0,0,0-.669,3.617A12.028,12.028,0,0,0,4.6,14.855,6.666,6.666,0,0,0,5.951,17.5a5.628,5.628,0,0,0,2.285,1.589,8.765,8.765,0,0,0,3.153.527,10.8,10.8,0,0,0,2.069-.222c.341-.068.665-.15.973-.24a7.324,7.324,0,0,0,.838-.3L15.7,20.8a4.8,4.8,0,0,1-.938.464,9.027,9.027,0,0,1-1.108.321,10.815,10.815,0,0,1-2.315.259,12.14,12.14,0,0,1-4.22-.68,7.768,7.768,0,0,1-3.077-2.023A8.5,8.5,0,0,1,2.2,15.8a14.247,14.247,0,0,1-.516-4.637,14.141,14.141,0,0,1,.887-4.45A11.013,11.013,0,0,1,4.707,3.179,9.74,9.74,0,0,1,7.968.846,10.209,10.209,0,0,1,12.191,0a10.659,10.659,0,0,1,4.092.733,7.959,7.959,0,0,1,2.954,2.061,8.459,8.459,0,0,1,1.753,3.184A12.176,12.176,0,0,1,21.464,10.082ZM9.742,11.419a4.643,4.643,0,0,0,.24,2.3,1.235,1.235,0,0,0,1.188.778,1.312,1.312,0,0,0,.407-.075,1.45,1.45,0,0,0,.468-.281,2.5,2.5,0,0,0,.475-.573,4.4,4.4,0,0,0,.437-.969l.467-5.345a2.789,2.789,0,0,0-.726-.1,2.511,2.511,0,0,0-1.208.277,2.391,2.391,0,0,0-.856.814,4.777,4.777,0,0,0-.568,1.338,11.347,11.347,0,0,0-.322,1.829Z" transform="translate(-1.67)"/></svg>